<?xml version="1.0" encoding="UTF-8" standalone="no"?>
<svg
   xmlns:dc="http://purl.org/dc/elements/1.1/"
   xmlns:cc="http://creativecommons.org/ns#"
   xmlns:rdf="http://www.w3.org/1999/02/22-rdf-syntax-ns#"
   xmlns:svg="http://www.w3.org/2000/svg"
   xmlns="http://www.w3.org/2000/svg"
   xmlns:sodipodi="http://sodipodi.sourceforge.net/DTD/sodipodi-0.dtd"
   xmlns:inkscape="http://www.inkscape.org/namespaces/inkscape"
   sodipodi:docname="BrownianBridge.svg"
   inkscape:version="1.0 (4035a4f, 2020-05-01)"
   id="svg8"
   version="1.1"
   viewBox="0 0 30.480002 128.50002"
   height="128.5mm"
   width="30.48mm">
  <defs
     id="defs2" />
  <sodipodi:namedview
     inkscape:document-rotation="0"
     inkscape:snap-nodes="false"
     inkscape:snap-bbox-midpoints="true"
     inkscape:window-maximized="0"
     inkscape:window-y="23"
     inkscape:window-x="0"
     inkscape:window-height="1065"
     inkscape:window-width="1324"
     inkscape:snap-bbox-edge-midpoints="false"
     inkscape:bbox-nodes="false"
     inkscape:snap-page="true"
     inkscape:snap-bbox="true"
     units="mm"
     showgrid="false"
     inkscape:current-layer="layer1"
     inkscape:document-units="mm"
     inkscape:cy="293.38569"
     inkscape:cx="57.14084"
     inkscape:zoom="1.979899"
     inkscape:pageshadow="2"
     inkscape:pageopacity="0.0"
     borderopacity="1.0"
     bordercolor="#666666"
     pagecolor="#ffffff"
     id="base" />
  <metadata
     id="metadata5">
    <rdf:RDF>
      <cc:Work
         rdf:about="">
        <dc:format>image/svg+xml</dc:format>
        <dc:type
           rdf:resource="http://purl.org/dc/dcmitype/StillImage" />
        <dc:title />
      </cc:Work>
    </rdf:RDF>
  </metadata>
  <g
     style="display:inline"
     transform="translate(0,-168.49998)"
     id="layer1"
     inkscape:groupmode="layer"
     inkscape:label="Layer 1">
    <rect
       y="168.63361"
       x="-0.0053724367"
       height="128.5"
       width="30.48"
       id="rect420"
       style="display:inline;opacity:1;vector-effect:none;fill:#d2b48c;fill-opacity:1;fill-rule:evenodd;stroke:none;stroke-width:0.649358;stroke-linecap:butt;stroke-linejoin:miter;stroke-miterlimit:4;stroke-dasharray:none;stroke-dashoffset:0;stroke-opacity:1;paint-order:normal" />
    <rect
       ry="0"
       y="272.49997"
       x="18"
       height="16"
       width="12"
       id="rect75"
       style="fill:#000000;fill-opacity:1;stroke-width:0.252659" />
    <text
       id="text50"
       y="173.92349"
       x="7.2162771"
       style="font-style:normal;font-weight:normal;font-size:10.5833px;line-height:1.25;font-family:sans-serif;fill:#000000;fill-opacity:1;stroke:none;stroke-width:0.264583"
       xml:space="preserve"><tspan
         style="stroke-width:0.264583"
         y="173.92349"
         x="7.2162771"
         id="tspan48"
         sodipodi:role="line" /></text>
    <text
       id="text54"
       y="177.93254"
       x="5.6126599"
       style="font-style:normal;font-weight:normal;font-size:10.5833px;line-height:1.25;font-family:sans-serif;fill:#000000;fill-opacity:1;stroke:none;stroke-width:0.264583"
       xml:space="preserve"><tspan
         style="stroke-width:0.264583"
         y="177.93254"
         x="5.6126599"
         id="tspan52"
         sodipodi:role="line" /></text>
    <g
       style="font-size:4.23333px;line-height:1.25;font-family:Sans;-inkscape-font-specification:'Sans, Normal';stroke-width:0.264583"
       id="text58"
       aria-label="Brownian   Bridge "
       transform="translate(0,1.3477)">
      <path
         id="path95"
         style="stroke-width:0.264583"
         d="m 7.5455656,175.30408 q 0,0.22945 -0.086816,0.40514 -0.086816,0.1757 -0.2335773,0.28939 -0.1736327,0.13643 -0.3824053,0.19431 -0.2067055,0.0579 -0.5270992,0.0579 H 5.2242622 v -3.07784 h 0.9115715 q 0.3369301,0 0.5043616,0.0248 0.1674315,0.0248 0.3203936,0.10336 0.1694985,0.0889 0.2459796,0.22944 0.076481,0.13849 0.076481,0.33279 0,0.21911 -0.111621,0.37414 -0.111621,0.15296 -0.297656,0.24598 V 174.5 q 0.3121254,0.0641 0.4919593,0.27492 0.1798338,0.20877 0.1798338,0.52916 z m -0.6883295,-1.38699 q 0,-0.11162 -0.037207,-0.1881 -0.037207,-0.0765 -0.1198892,-0.12403 -0.097152,-0.0558 -0.2356444,-0.0682 -0.1384927,-0.0145 -0.3431312,-0.0145 H 5.6335392 v 0.88883 h 0.5291662 q 0.1922362,0 0.3059243,-0.0186 0.113688,-0.0207 0.2108396,-0.0827 0.097152,-0.062 0.1364257,-0.15916 0.041341,-0.0992 0.041341,-0.23358 z m 0.2625161,1.40353 q 0,-0.18604 -0.05581,-0.29559 -0.05581,-0.10955 -0.2025715,-0.18604 -0.099219,-0.0517 -0.2418455,-0.0661 -0.1405598,-0.0165 -0.3431312,-0.0165 H 5.6335392 v 1.14515 h 0.5415686 q 0.2687172,0 0.4402828,-0.0269 0.1715656,-0.0289 0.2811196,-0.10335 0.1157551,-0.0806 0.1694985,-0.18397 0.053743,-0.10335 0.053743,-0.26665 z" />
      <path
         id="path97"
         style="stroke-width:0.264583"
         d="m 9.5361402,174.36564 h -0.020671 q -0.086816,-0.0207 -0.1694985,-0.0289 -0.080615,-0.0103 -0.1922362,-0.0103 -0.1798338,0 -0.3472653,0.0806 -0.1674315,0.0786 -0.3224607,0.20464 v 1.63917 h -0.388606 v -2.3089 h 0.3886064 v 0.34107 q 0.2315102,-0.18604 0.40721,-0.26252 0.1777667,-0.0786 0.3617347,-0.0786 0.1012857,0 0.1467609,0.006 0.045475,0.004 0.1364257,0.0186 z" />
      <path
         id="path99"
         style="stroke-width:0.264583"
         d="m 11.87398,175.09738 q 0,0.5643 -0.289388,0.8909 -0.289387,0.32659 -0.775146,0.32659 -0.489892,0 -0.779279,-0.32659 -0.2873212,-0.3266 -0.2873212,-0.8909 0,-0.56431 0.2873212,-0.8909 0.289387,-0.32867 0.779279,-0.32867 0.485759,0 0.775146,0.32867 0.289388,0.32659 0.289388,0.8909 z m -0.401009,0 q 0,-0.44855 -0.175699,-0.6656 -0.1757,-0.2191 -0.487826,-0.2191 -0.316259,0 -0.491959,0.2191 -0.173632,0.21705 -0.173632,0.6656 0,0.43408 0.175699,0.65939 0.1757,0.22324 0.489892,0.22324 0.310059,0 0.485759,-0.22118 0.177766,-0.22324 0.177766,-0.66145 z" />
      <path
         id="path101"
         style="stroke-width:0.264583"
         d="m 15.381773,173.94189 -0.601513,2.3089 h -0.359668 l -0.593245,-1.77973 -0.589111,1.77973 h -0.3576 l -0.607714,-2.3089 h 0.405142 l 0.423747,1.78801 0.576708,-1.78801 h 0.320394 l 0.591178,1.78801 0.401009,-1.78801 z" />
      <path
         id="path103"
         style="stroke-width:0.264583"
         d="m 17.872575,176.25079 h -0.388606 v -1.31464 q 0,-0.15917 -0.0186,-0.29766 -0.0186,-0.14056 -0.06821,-0.21911 -0.05168,-0.0868 -0.148828,-0.12816 -0.09715,-0.0434 -0.252181,-0.0434 -0.159163,0 -0.332796,0.0785 -0.173632,0.0786 -0.332795,0.20051 v 1.72392 h -0.388607 v -2.3089 h 0.388607 v 0.25632 q 0.1819,-0.1509 0.376204,-0.23565 0.194303,-0.0847 0.398941,-0.0847 0.374137,0 0.570508,0.22531 0.19637,0.22531 0.19637,0.64906 z" />
      <path
         id="path105"
         style="stroke-width:0.264583"
         d="m 19.038395,173.55535 h -0.438216 v -0.40307 h 0.438216 z m -0.02481,2.69544 h -0.388606 v -2.3089 h 0.388606 z" />
      <path
         id="path107"
         style="stroke-width:0.264583"
         d="m 21.580873,176.25079 h -0.386539 v -0.24598 q -0.05168,0.0351 -0.14056,0.0992 -0.08682,0.062 -0.169499,0.0992 -0.09715,0.0475 -0.223242,0.0786 -0.12609,0.0331 -0.295589,0.0331 -0.312125,0 -0.529166,-0.2067 -0.217041,-0.20671 -0.217041,-0.5271 0,-0.26252 0.111621,-0.42375 0.113688,-0.1633 0.322461,-0.25631 0.21084,-0.093 0.506429,-0.12609 0.295588,-0.0331 0.634586,-0.0496 v -0.06 q 0,-0.13229 -0.04754,-0.21911 -0.04547,-0.0868 -0.132291,-0.13642 -0.08268,-0.0475 -0.198438,-0.0641 -0.115755,-0.0165 -0.241845,-0.0165 -0.152962,0 -0.341064,0.0413 -0.188102,0.0393 -0.388607,0.11576 h -0.02067 v -0.39481 q 0.113688,-0.031 0.328662,-0.0682 0.214973,-0.0372 0.423746,-0.0372 0.243913,0 0.423746,0.0413 0.181901,0.0393 0.314193,0.13643 0.130224,0.0951 0.198437,0.24598 0.06821,0.15089 0.06821,0.37414 z m -0.386539,-0.56844 v -0.64285 q -0.177767,0.0103 -0.419613,0.031 -0.239778,0.0207 -0.380338,0.0599 -0.167431,0.0475 -0.270784,0.14883 -0.103353,0.0992 -0.103353,0.27492 0,0.19843 0.119889,0.29972 0.119889,0.0992 0.365869,0.0992 0.204639,0 0.374137,-0.0785 0.169499,-0.0806 0.314193,-0.19224 z" />
      <path
         id="path109"
         style="stroke-width:0.264583"
         d="m 24.26391,176.25079 h -0.388606 v -1.31464 q 0,-0.15917 -0.0186,-0.29766 -0.0186,-0.14056 -0.06821,-0.21911 -0.05168,-0.0868 -0.148828,-0.12816 -0.09715,-0.0434 -0.252181,-0.0434 -0.159163,0 -0.332796,0.0785 -0.173633,0.0786 -0.332796,0.20051 v 1.72392 h -0.388606 v -2.3089 h 0.388606 v 0.25632 q 0.181901,-0.1509 0.376204,-0.23565 0.194303,-0.0847 0.398942,-0.0847 0.374137,0 0.570507,0.22531 0.19637,0.22531 0.19637,0.64906 z" />
      <path
         id="path111"
         style="stroke-width:0.264583"
         d="m 10.522126,180.59574 q 0,0.22945 -0.08682,0.40515 -0.08682,0.1757 -0.233577,0.28938 -0.173633,0.13643 -0.3824052,0.19431 -0.2067055,0.0579 -0.5270991,0.0579 H 8.2008223 v -3.07785 h 0.9115715 q 0.3369301,0 0.5043616,0.0248 0.1674315,0.0248 0.3203936,0.10336 0.169499,0.0889 0.24598,0.22944 0.07648,0.13849 0.07648,0.3328 0,0.2191 -0.111621,0.37413 -0.111621,0.15297 -0.2976563,0.24598 v 0.0165 q 0.3121253,0.0641 0.4919593,0.27492 0.179834,0.20877 0.179834,0.52916 z m -0.6883298,-1.38699 q 0,-0.11162 -0.037207,-0.1881 -0.037207,-0.0765 -0.1198892,-0.12403 -0.097152,-0.0558 -0.2356443,-0.0682 -0.1384928,-0.0145 -0.3431313,-0.0145 H 8.6100993 v 0.88884 h 0.5291662 q 0.1922362,0 0.3059243,-0.0186 0.113688,-0.0207 0.2108396,-0.0827 0.097152,-0.062 0.1364257,-0.15916 0.041341,-0.0992 0.041341,-0.23358 z m 0.2625158,1.40353 q 0,-0.18603 -0.05581,-0.29559 -0.055811,-0.10955 -0.2025717,-0.18603 -0.099219,-0.0517 -0.2418455,-0.0661 -0.1405598,-0.0165 -0.3431312,-0.0165 H 8.6100993 v 1.14515 h 0.5415686 q 0.2687172,0 0.4402828,-0.0269 0.1715656,-0.0289 0.2811196,-0.10335 0.1157551,-0.0806 0.1694987,-0.18397 0.05374,-0.10335 0.05374,-0.26665 z" />
      <path
         id="path113"
         style="stroke-width:0.264583"
         d="m 12.5127,179.6573 h -0.02067 q -0.08682,-0.0207 -0.169499,-0.0289 -0.08061,-0.0103 -0.192236,-0.0103 -0.179834,0 -0.347266,0.0806 -0.167431,0.0785 -0.32246,0.20464 v 1.63918 h -0.388607 v -2.30891 h 0.388607 v 0.34107 q 0.23151,-0.18604 0.40721,-0.26252 0.177767,-0.0785 0.361734,-0.0785 0.101286,0 0.146761,0.006 0.04548,0.004 0.136426,0.0186 z" />
      <path
         id="path115"
         style="stroke-width:0.264583"
         d="m 13.300249,178.84702 h -0.438216 v -0.40308 h 0.438216 z m -0.02481,2.69544 h -0.388607 v -2.30891 h 0.388607 z" />
      <path
         id="path117"
         style="stroke-width:0.264583"
         d="m 15.921275,181.54246 h -0.388606 v -0.24185 q -0.167432,0.14469 -0.349333,0.22531 -0.1819,0.0806 -0.394807,0.0806 -0.413411,0 -0.657324,-0.31832 -0.241845,-0.31833 -0.241845,-0.88263 0,-0.29353 0.08268,-0.52297 0.08475,-0.22944 0.227376,-0.39067 0.14056,-0.1571 0.326595,-0.23978 0.188102,-0.0827 0.388606,-0.0827 0.181901,0 0.322461,0.0393 0.14056,0.0372 0.295589,0.11782 v -1.00045 h 0.388606 z m -0.388606,-0.56844 v -1.32499 q -0.157096,-0.0703 -0.28112,-0.0971 -0.124023,-0.0269 -0.270784,-0.0269 -0.326595,0 -0.508496,0.22738 -0.181901,0.22737 -0.181901,0.64492 0,0.41134 0.14056,0.62631 0.14056,0.21291 0.450618,0.21291 0.165365,0 0.334863,-0.0724 0.169499,-0.0744 0.31626,-0.19016 z" />
      <path
         id="path119"
         style="stroke-width:0.264583"
         d="m 18.558838,181.27994 q 0,0.58704 -0.26665,0.86196 -0.26665,0.27492 -0.820621,0.27492 -0.183968,0 -0.359668,-0.0269 -0.173633,-0.0248 -0.343131,-0.0724 v -0.39687 h 0.02067 q 0.09509,0.0372 0.301791,0.091 0.206705,0.0558 0.413411,0.0558 0.198437,0 0.328662,-0.0475 0.130224,-0.0476 0.202571,-0.1323 0.07235,-0.0806 0.103353,-0.1943 0.03101,-0.11369 0.03101,-0.25425 v -0.21084 q -0.1757,0.14056 -0.33693,0.21084 -0.159164,0.0682 -0.40721,0.0682 -0.413412,0 -0.657324,-0.29766 -0.241846,-0.29972 -0.241846,-0.84336 0,-0.29765 0.08268,-0.51263 0.08475,-0.21704 0.229443,-0.37414 0.134358,-0.14676 0.326595,-0.22737 0.192236,-0.0827 0.382405,-0.0827 0.200504,0 0.334863,0.0413 0.136426,0.0393 0.287321,0.12195 l 0.0248,-0.0992 h 0.363802 z m -0.388606,-0.37207 v -1.25884 q -0.15503,-0.0703 -0.289388,-0.0992 -0.132292,-0.031 -0.264583,-0.031 -0.320394,0 -0.504362,0.21497 -0.183968,0.21498 -0.183968,0.62425 0,0.38861 0.136426,0.58911 0.136426,0.20051 0.452685,0.20051 0.169499,0 0.338997,-0.0641 0.171566,-0.0662 0.314193,-0.1757 z" />
      <path
         id="path121"
         style="stroke-width:0.264583"
         d="m 21.256345,180.42831 h -1.701186 q 0,0.21291 0.06408,0.37207 0.06408,0.1571 0.1757,0.25838 0.107487,0.0992 0.254248,0.14883 0.148828,0.0496 0.326595,0.0496 0.235644,0 0.473355,-0.093 0.239779,-0.0951 0.341065,-0.18603 h 0.02067 v 0.42375 q -0.19637,0.0827 -0.401009,0.13849 -0.204638,0.0558 -0.429947,0.0558 -0.574642,0 -0.897102,-0.31006 -0.322461,-0.31212 -0.322461,-0.8847 0,-0.56637 0.307991,-0.89917 0.310059,-0.33279 0.81442,-0.33279 0.467155,0 0.719336,0.27285 0.254247,0.27285 0.254247,0.77514 z m -0.378271,-0.29765 q -0.0021,-0.30593 -0.155029,-0.47336 -0.150895,-0.16743 -0.460953,-0.16743 -0.312126,0 -0.498161,0.18397 -0.183968,0.18397 -0.208772,0.45682 z" />
    </g>
    <g
       style="font-size:4.23333px;line-height:1.25;font-family:Sans;-inkscape-font-specification:'Sans, Normal';stroke-width:0.264583"
       id="text137"
       aria-label="Trig"
       transform="translate(-7.225319,32.23592)">
      <path
         id="path139"
         style="stroke-width:0.264583"
         d="m 13.833943,252.64854 h -1.099674 v 2.71404 h -0.409277 v -2.71404 h -1.099673 v -0.36381 h 2.608624 z" />
      <path
         id="path141"
         style="stroke-width:0.264583"
         d="m 15.66122,253.47742 h -0.02067 q -0.08682,-0.0207 -0.169499,-0.0289 -0.08061,-0.0103 -0.192236,-0.0103 -0.179834,0 -0.347266,0.0806 -0.167431,0.0785 -0.32246,0.20463 v 1.63918 h -0.388607 v -2.3089 h 0.388607 v 0.34106 q 0.23151,-0.18603 0.40721,-0.26251 0.177767,-0.0785 0.361734,-0.0785 0.101286,0 0.146761,0.006 0.04548,0.004 0.136426,0.0186 z" />
      <path
         id="path143"
         style="stroke-width:0.264583"
         d="m 16.448769,252.66714 h -0.438216 v -0.40308 h 0.438216 z m -0.0248,2.69544 h -0.388607 v -2.3089 h 0.388607 z" />
      <path
         id="path145"
         style="stroke-width:0.264583"
         d="m 19.069795,255.10006 q 0,0.58705 -0.26665,0.86197 -0.266651,0.27491 -0.820621,0.27491 -0.183968,0 -0.359668,-0.0269 -0.173633,-0.0248 -0.343131,-0.0723 v -0.39688 h 0.02067 q 0.09508,0.0372 0.30179,0.0909 0.206706,0.0558 0.413411,0.0558 0.198438,0 0.328662,-0.0475 0.130225,-0.0475 0.202572,-0.13229 0.07235,-0.0806 0.103353,-0.19431 0.03101,-0.11368 0.03101,-0.25424 v -0.21084 q -0.175699,0.14056 -0.33693,0.21084 -0.159163,0.0682 -0.40721,0.0682 -0.413411,0 -0.657323,-0.29766 -0.241846,-0.29972 -0.241846,-0.84336 0,-0.29765 0.08268,-0.51263 0.08475,-0.21704 0.229444,-0.37413 0.134358,-0.14676 0.326594,-0.22738 0.192237,-0.0827 0.382406,-0.0827 0.200504,0 0.334863,0.0413 0.136425,0.0393 0.28732,0.12196 l 0.02481,-0.0992 h 0.363802 z m -0.388607,-0.37207 v -1.25883 q -0.155029,-0.0703 -0.289387,-0.0992 -0.132292,-0.031 -0.264584,-0.031 -0.320393,0 -0.504361,0.21498 -0.183968,0.21497 -0.183968,0.62425 0,0.3886 0.136426,0.58911 0.136425,0.2005 0.452685,0.2005 0.169498,0 0.338997,-0.0641 0.171566,-0.0661 0.314192,-0.1757 z" />
    </g>
    <g
       style="font-size:4.23333px;line-height:1.25;font-family:Sans;-inkscape-font-specification:'Sans, Normal';stroke-width:0.264583"
       id="text150"
       aria-label="Noise"
       transform="translate(-1.4327028,17.03313)">
      <path
         id="path152"
         style="stroke-width:0.264583"
         d="m 11.84875,224.09204 h -0.506428 l -1.4593417,-2.75332 v 2.75332 H 9.500575 v -3.07784 h 0.634586 l 1.331184,2.51353 v -2.51353 h 0.382405 z" />
      <path
         id="path154"
         style="stroke-width:0.264583"
         d="m 14.604135,222.93862 q 0,0.56431 -0.289387,0.8909 -0.289388,0.3266 -0.775146,0.3266 -0.489892,0 -0.77928,-0.3266 -0.287321,-0.32659 -0.287321,-0.8909 0,-0.5643 0.287321,-0.8909 0.289388,-0.32866 0.77928,-0.32866 0.485758,0 0.775146,0.32866 0.289387,0.3266 0.289387,0.8909 z m -0.401008,0 q 0,-0.44855 -0.1757,-0.66559 -0.1757,-0.21911 -0.487825,-0.21911 -0.31626,0 -0.49196,0.21911 -0.173632,0.21704 -0.173632,0.66559 0,0.43409 0.1757,0.65939 0.175699,0.22325 0.489892,0.22325 0.310058,0 0.485758,-0.22118 0.177767,-0.22324 0.177767,-0.66146 z" />
      <path
         id="path156"
         style="stroke-width:0.264583"
         d="m 15.625261,221.3966 h -0.438216 v -0.40308 h 0.438216 z m -0.02481,2.69544 H 15.21185 v -2.3089 h 0.388606 z" />
      <path
         id="path158"
         style="stroke-width:0.264583"
         d="m 18.023045,223.42645 q 0,0.31626 -0.262516,0.51883 -0.260449,0.20257 -0.713134,0.20257 -0.256315,0 -0.471289,-0.0599 -0.212907,-0.062 -0.3576,-0.13436 v -0.43615 h 0.02067 q 0.183968,0.13849 0.409277,0.22117 0.225309,0.0806 0.432015,0.0806 0.256315,0 0.401008,-0.0827 0.144694,-0.0827 0.144694,-0.26045 0,-0.13643 -0.07855,-0.20671 -0.07855,-0.0703 -0.30179,-0.11989 -0.08268,-0.0186 -0.217041,-0.0434 -0.132291,-0.0248 -0.241845,-0.0538 -0.303857,-0.0806 -0.432015,-0.23564 -0.12609,-0.1571 -0.12609,-0.38447 0,-0.14263 0.05788,-0.26872 0.05994,-0.12609 0.179834,-0.22531 0.115755,-0.0972 0.293522,-0.15296 0.179834,-0.0579 0.401009,-0.0579 0.206705,0 0.417545,0.0517 0.212907,0.0496 0.353467,0.12195 v 0.41548 h -0.02067 q -0.148828,-0.10955 -0.361735,-0.18397 -0.212906,-0.0765 -0.417545,-0.0765 -0.212907,0 -0.359668,0.0827 -0.146761,0.0806 -0.146761,0.24185 0,0.14263 0.08888,0.21497 0.08682,0.0724 0.281119,0.11782 0.107487,0.0248 0.239779,0.0496 0.134358,0.0248 0.223242,0.0455 0.270784,0.062 0.417545,0.21291 0.146761,0.15296 0.146761,0.40514 z" />
      <path
         id="path160"
         style="stroke-width:0.264583"
         d="M 20.513847,222.9779 H 18.81266 q 0,0.2129 0.06408,0.37207 0.06408,0.15709 0.1757,0.25838 0.107487,0.0992 0.254248,0.14883 0.148828,0.0496 0.326594,0.0496 0.235645,0 0.473356,-0.093 0.239778,-0.0951 0.341064,-0.18604 h 0.02067 v 0.42375 q -0.196371,0.0827 -0.401009,0.13849 -0.204639,0.0558 -0.429948,0.0558 -0.574641,0 -0.897102,-0.31005 -0.32246,-0.31213 -0.32246,-0.8847 0,-0.56638 0.307991,-0.89917 0.310058,-0.3328 0.81442,-0.3328 0.467154,0 0.719335,0.27285 0.254248,0.27285 0.254248,0.77515 z m -0.378271,-0.29766 q -0.0021,-0.30592 -0.155029,-0.47335 -0.150895,-0.16744 -0.460954,-0.16744 -0.312125,0 -0.49816,0.18397 -0.183968,0.18397 -0.208773,0.45682 z" />
    </g>
    <circle
       r="2"
       style="display:inline;opacity:1;vector-effect:none;fill:#0033ff;fill-opacity:1;fill-rule:evenodd;stroke:none;stroke-width:0.5;stroke-linecap:butt;stroke-linejoin:miter;stroke-miterlimit:4;stroke-dasharray:none;stroke-dashoffset:0;stroke-opacity:1;paint-order:normal"
       id="path4954-2"
       cx="8"
       cy="232.49998"
       inkscape:label="noise" />
    <g
       aria-label="Range"
       id="text72"
       style="font-size:4.23333px;line-height:1.25;font-family:Sans;-inkscape-font-specification:'Sans, Normal';stroke-width:0.264583"
       transform="translate(-0.90353618,5.15747)">
      <path
         d="m 11.512648,196.83055 h -0.531233 l -1.0293937,-1.2237 H 9.3753128 v 1.2237 h -0.409277 v -3.07784 H 9.827998 q 0.279052,0 0.465087,0.0372 0.186035,0.0351 0.334863,0.12816 0.167432,0.10542 0.260449,0.26665 0.09509,0.15916 0.09509,0.40514 0,0.3328 -0.167431,0.55811 -0.167432,0.22324 -0.460954,0.33693 z m -0.957046,-2.21175 q 0,-0.13229 -0.04754,-0.23358 -0.04547,-0.10335 -0.152962,-0.17363 -0.08888,-0.0599 -0.21084,-0.0827 -0.121956,-0.0248 -0.2873202,-0.0248 h -0.481624 v 1.16169 h 0.4134111 q 0.1943032,0 0.3389971,-0.0331 0.144694,-0.0351 0.24598,-0.12816 0.09302,-0.0868 0.136425,-0.19844 0.04548,-0.11369 0.04548,-0.28732 z"
         style="stroke-width:0.264583"
         id="path78" />
      <path
         d="m 13.672721,196.83055 h -0.386539 v -0.24598 q -0.05168,0.0351 -0.14056,0.0992 -0.08682,0.062 -0.169498,0.0992 -0.09715,0.0475 -0.223242,0.0786 -0.126091,0.0331 -0.295589,0.0331 -0.312126,0 -0.529167,-0.20671 -0.21704,-0.2067 -0.21704,-0.52709 0,-0.26252 0.111621,-0.42375 0.113688,-0.1633 0.32246,-0.25632 0.21084,-0.093 0.506429,-0.12609 0.295589,-0.0331 0.634586,-0.0496 v -0.0599 q 0,-0.13229 -0.04754,-0.21911 -0.04548,-0.0868 -0.132292,-0.13642 -0.08268,-0.0476 -0.198437,-0.0641 -0.115755,-0.0165 -0.241846,-0.0165 -0.152962,0 -0.341064,0.0413 -0.188102,0.0393 -0.388606,0.11576 h -0.02067 v -0.39481 q 0.113688,-0.031 0.328662,-0.0682 0.214974,-0.0372 0.423746,-0.0372 0.243913,0 0.423747,0.0413 0.181901,0.0393 0.314192,0.13643 0.130225,0.0951 0.198438,0.24598 0.06821,0.15089 0.06821,0.37413 z m -0.386539,-0.56844 v -0.64285 q -0.177767,0.0103 -0.419612,0.031 -0.239779,0.0207 -0.380339,0.0599 -0.167431,0.0475 -0.270784,0.14883 -0.103353,0.0992 -0.103353,0.27491 0,0.19844 0.11989,0.29973 0.119889,0.0992 0.365868,0.0992 0.204639,0 0.374138,-0.0786 0.169498,-0.0806 0.314192,-0.19224 z"
         style="stroke-width:0.264583"
         id="path80" />
      <path
         d="m 16.35576,196.83055 h -0.388607 v -1.31465 q 0,-0.15916 -0.0186,-0.29765 -0.0186,-0.14056 -0.06821,-0.21911 -0.05168,-0.0868 -0.148828,-0.12816 -0.09715,-0.0434 -0.252181,-0.0434 -0.159163,0 -0.332796,0.0785 -0.173632,0.0786 -0.332796,0.20051 v 1.72392 H 14.42513 v -2.3089 h 0.388606 v 0.25631 q 0.181901,-0.15089 0.376204,-0.23564 0.194304,-0.0847 0.398942,-0.0847 0.374137,0 0.570507,0.22531 0.196371,0.22531 0.196371,0.64906 z"
         style="stroke-width:0.264583"
         id="path82" />
      <path
         d="m 18.976786,196.56804 q 0,0.58704 -0.26665,0.86196 -0.266651,0.27492 -0.820621,0.27492 -0.183968,0 -0.359668,-0.0269 -0.173633,-0.0248 -0.343131,-0.0723 v -0.39688 h 0.02067 q 0.09509,0.0372 0.30179,0.0909 0.206706,0.0558 0.413411,0.0558 0.198438,0 0.328662,-0.0475 0.130225,-0.0475 0.202572,-0.13229 0.07235,-0.0806 0.103353,-0.1943 0.03101,-0.11369 0.03101,-0.25425 v -0.21084 q -0.175699,0.14056 -0.33693,0.21084 -0.159163,0.0682 -0.40721,0.0682 -0.413411,0 -0.657323,-0.29765 -0.241846,-0.29973 -0.241846,-0.84336 0,-0.29766 0.08268,-0.51263 0.08475,-0.21704 0.229444,-0.37414 0.134358,-0.14676 0.326594,-0.22738 0.192237,-0.0827 0.382406,-0.0827 0.200504,0 0.334863,0.0413 0.136425,0.0393 0.28732,0.12196 l 0.02481,-0.0992 h 0.363802 z m -0.388607,-0.37207 v -1.25884 q -0.155029,-0.0703 -0.289387,-0.0992 -0.132292,-0.031 -0.264584,-0.031 -0.320393,0 -0.504361,0.21498 -0.183968,0.21497 -0.183968,0.62425 0,0.3886 0.136426,0.58911 0.136425,0.2005 0.452685,0.2005 0.169498,0 0.338997,-0.0641 0.171566,-0.0661 0.314192,-0.17569 z"
         style="stroke-width:0.264583"
         id="path84" />
      <path
         d="m 21.674293,195.71641 h -1.701187 q 0,0.2129 0.06408,0.37207 0.06408,0.15709 0.1757,0.25838 0.107487,0.0992 0.254248,0.14883 0.148828,0.0496 0.326594,0.0496 0.235645,0 0.473356,-0.093 0.239779,-0.0951 0.341064,-0.18604 h 0.02067 V 196.69 q -0.19637,0.0827 -0.401009,0.13849 -0.204638,0.0558 -0.429947,0.0558 -0.574642,0 -0.897103,-0.31005 -0.32246,-0.31213 -0.32246,-0.8847 0,-0.56638 0.307991,-0.89917 0.310058,-0.3328 0.81442,-0.3328 0.467155,0 0.719335,0.27285 0.254248,0.27285 0.254248,0.77515 z m -0.378271,-0.29766 q -0.0021,-0.30592 -0.155029,-0.47335 -0.150895,-0.16744 -0.460954,-0.16744 -0.312125,0 -0.49816,0.18397 -0.183968,0.18397 -0.208773,0.45682 z"
         style="stroke-width:0.264583"
         id="path86" />
    </g>
    <g
       aria-label="Offset"
       id="text76"
       style="font-size:4.23333px;line-height:1.25;font-family:Sans;-inkscape-font-specification:'Sans, Normal';stroke-width:0.264583"
       transform="translate(-1.3098122,4.4463204)">
      <path
         d="m 11.795007,214.15138 q 0.188102,0.20671 0.28732,0.50643 0.101286,0.29973 0.101286,0.68006 0,0.38034 -0.103353,0.68213 -0.101285,0.29972 -0.285253,0.50023 -0.190169,0.20877 -0.450618,0.31419 -0.258382,0.10542 -0.591178,0.10542 -0.324528,0 -0.591178,-0.10749 -0.2645833,-0.10748 -0.4506183,-0.31212 -0.186035,-0.20464 -0.2873207,-0.5023 -0.099219,-0.29765 -0.099219,-0.68006 0,-0.3762 0.099219,-0.67386 0.099219,-0.29972 0.2893878,-0.51263 0.1819008,-0.20257 0.4506182,-0.31005 0.270784,-0.10749 0.589111,-0.10749 0.330729,0 0.593245,0.10955 0.264583,0.10749 0.448551,0.30799 z m -0.03721,1.18649 q 0,-0.59944 -0.268718,-0.92397 -0.268717,-0.3266 -0.733804,-0.3266 -0.469222,0 -0.737939,0.3266 -0.2666502,0.32453 -0.2666502,0.92397 0,0.60565 0.2728512,0.92811 0.272851,0.3204 0.731738,0.3204 0.458886,0 0.72967,-0.3204 0.272852,-0.32246 0.272852,-0.92811 z"
         style="stroke-width:0.264583"
         id="path89" />
      <path
         d="m 14.043963,214.03563 h -0.02067 q -0.06408,-0.0186 -0.167432,-0.0372 -0.103353,-0.0207 -0.181901,-0.0207 -0.250114,0 -0.363802,0.11162 -0.111621,0.10956 -0.111621,0.39894 v 0.0785 h 0.700732 v 0.3266 H 13.21094 v 1.9823 h -0.388607 v -1.9823 h -0.262516 v -0.3266 h 0.262516 v -0.0765 q 0,-0.41134 0.204639,-0.63045 0.204638,-0.22118 0.591178,-0.22118 0.130224,0 0.233577,0.0124 0.10542,0.0124 0.192236,0.0289 z"
         style="stroke-width:0.264583"
         id="path91" />
      <path
         d="m 15.532243,214.03563 h -0.02067 q -0.06408,-0.0186 -0.167432,-0.0372 -0.103353,-0.0207 -0.181901,-0.0207 -0.250114,0 -0.363802,0.11162 -0.111621,0.10956 -0.111621,0.39894 v 0.0785 h 0.700732 v 0.3266 H 14.69922 v 1.9823 h -0.388607 v -1.9823 h -0.262516 v -0.3266 h 0.262516 v -0.0765 q 0,-0.41134 0.204639,-0.63045 0.204638,-0.22118 0.591178,-0.22118 0.130224,0 0.233577,0.0124 0.10542,0.0124 0.192236,0.0289 z"
         style="stroke-width:0.264583"
         id="path93" />
      <path
         d="m 17.427733,216.21017 q 0,0.31626 -0.262516,0.51883 -0.260449,0.20257 -0.713134,0.20257 -0.256315,0 -0.471289,-0.0599 -0.212906,-0.062 -0.3576,-0.13436 v -0.43615 h 0.02067 q 0.183968,0.13849 0.409277,0.22118 0.225309,0.0806 0.432015,0.0806 0.256315,0 0.401009,-0.0827 0.144694,-0.0827 0.144694,-0.26045 0,-0.13643 -0.07855,-0.20671 -0.07855,-0.0703 -0.301791,-0.11988 -0.08268,-0.0186 -0.21704,-0.0434 -0.132292,-0.0248 -0.241846,-0.0538 -0.303857,-0.0806 -0.432014,-0.23564 -0.126091,-0.1571 -0.126091,-0.38447 0,-0.14263 0.05788,-0.26872 0.05994,-0.12609 0.179834,-0.22531 0.115755,-0.0971 0.293521,-0.15296 0.179834,-0.0579 0.401009,-0.0579 0.206706,0 0.417545,0.0517 0.212907,0.0496 0.353467,0.12195 v 0.41548 h -0.02067 q -0.148828,-0.10955 -0.361734,-0.18397 -0.212907,-0.0765 -0.417546,-0.0765 -0.212906,0 -0.359667,0.0827 -0.146761,0.0806 -0.146761,0.24184 0,0.14263 0.08888,0.21497 0.08682,0.0724 0.28112,0.11783 0.107487,0.0248 0.239778,0.0496 0.134359,0.0248 0.223242,0.0455 0.270784,0.062 0.417545,0.21291 0.146761,0.15296 0.146761,0.40514 z"
         style="stroke-width:0.264583"
         id="path96" />
      <path
         d="m 19.918535,215.76162 h -1.701187 q 0,0.21291 0.06408,0.37207 0.06408,0.1571 0.1757,0.25838 0.107486,0.0992 0.254247,0.14883 0.148828,0.0496 0.326595,0.0496 0.235645,0 0.473356,-0.093 0.239778,-0.0951 0.341064,-0.18603 h 0.02067 v 0.42374 q -0.196371,0.0827 -0.401009,0.1385 -0.204639,0.0558 -0.429948,0.0558 -0.574641,0 -0.897102,-0.31006 -0.32246,-0.31213 -0.32246,-0.8847 0,-0.56637 0.307991,-0.89917 0.310058,-0.3328 0.81442,-0.3328 0.467154,0 0.719335,0.27285 0.254248,0.27286 0.254248,0.77515 z m -0.378271,-0.29766 q -0.0021,-0.30592 -0.155029,-0.47335 -0.150896,-0.16743 -0.460954,-0.16743 -0.312125,0 -0.49816,0.18396 -0.183968,0.18397 -0.208773,0.45682 z"
         style="stroke-width:0.264583"
         id="path98" />
      <path
         d="m 21.706538,216.85509 q -0.109554,0.0289 -0.239779,0.0475 -0.128157,0.0186 -0.229443,0.0186 -0.353466,0 -0.537434,-0.19017 -0.183968,-0.19017 -0.183968,-0.60978 v -1.22783 h -0.262516 v -0.3266 h 0.262516 v -0.66352 h 0.388606 v 0.66352 h 0.802018 v 0.3266 H 20.90452 v 1.05213 q 0,0.1819 0.0083,0.28525 0.0083,0.10129 0.05788,0.19017 0.04547,0.0827 0.124023,0.12196 0.08062,0.0372 0.243913,0.0372 0.09508,0 0.198437,-0.0269 0.103353,-0.0289 0.148828,-0.0475 h 0.02067 z"
         style="stroke-width:0.264583"
         id="path100" />
    </g>
    <circle
       inkscape:label="time"
       r="4"
       cy="252.49998"
       cx="20"
       id="path4954-2-3"
       style="display:inline;opacity:1;vector-effect:none;fill:#808000;fill-opacity:1;fill-rule:evenodd;stroke:none;stroke-width:1;stroke-linecap:butt;stroke-linejoin:miter;stroke-miterlimit:4;stroke-dasharray:none;stroke-dashoffset:0;stroke-opacity:1;paint-order:normal" />
    <g
       aria-label="Time"
       id="text176"
       style="font-size:4.23333px;line-height:1.25;font-family:Sans;-inkscape-font-specification:'Sans, Normal';stroke-width:0.264583"
       transform="translate(-2.0384923,14.291669)">
      <path
         d="m 12.779545,244.09054 h -1.099673 v 2.71404 h -0.409277 v -2.71404 h -1.099674 v -0.36381 h 2.608624 z"
         style="stroke-width:0.264583"
         id="path178" />
      <path
         d="m 13.58363,244.10914 h -0.438216 v -0.40308 h 0.438216 z m -0.0248,2.69544 h -0.388606 v -2.3089 h 0.388606 z"
         style="stroke-width:0.264583"
         id="path180" />
      <path
         d="m 17.701204,246.80458 h -0.388606 v -1.31465 q 0,-0.14882 -0.01447,-0.28732 -0.0124,-0.13849 -0.05581,-0.22117 -0.04754,-0.0889 -0.136426,-0.13436 -0.08888,-0.0455 -0.256314,-0.0455 -0.163298,0 -0.326595,0.0827 -0.163298,0.0806 -0.326595,0.2067 0.0062,0.0475 0.01034,0.11162 0.0041,0.062 0.0041,0.12403 v 1.47794 h -0.388606 v -1.31465 q 0,-0.15296 -0.01447,-0.28938 -0.0124,-0.1385 -0.05581,-0.22118 -0.04754,-0.0889 -0.136426,-0.13229 -0.08888,-0.0455 -0.256314,-0.0455 -0.159164,0 -0.320394,0.0785 -0.159163,0.0786 -0.318327,0.20051 v 1.72392 h -0.388606 v -2.3089 h 0.388606 v 0.25631 q 0.181901,-0.15089 0.361735,-0.23564 0.181901,-0.0847 0.386539,-0.0847 0.235645,0 0.398942,0.0992 0.165365,0.0992 0.24598,0.27492 0.235644,-0.19844 0.429947,-0.28526 0.194304,-0.0889 0.415479,-0.0889 0.380338,0 0.560172,0.23151 0.1819,0.22944 0.1819,0.64286 z"
         style="stroke-width:0.264583"
         id="path182" />
      <path
         d="m 20.382176,245.69044 h -1.701187 q 0,0.2129 0.06408,0.37207 0.06408,0.15709 0.175699,0.25838 0.107487,0.0992 0.254248,0.14883 0.148828,0.0496 0.326595,0.0496 0.235644,0 0.473356,-0.093 0.239778,-0.0951 0.341064,-0.18604 h 0.02067 v 0.42375 q -0.19637,0.0827 -0.401008,0.13849 -0.204639,0.0558 -0.429948,0.0558 -0.574641,0 -0.897102,-0.31005 -0.322461,-0.31213 -0.322461,-0.8847 0,-0.56638 0.307992,-0.89917 0.310058,-0.3328 0.814419,-0.3328 0.467155,0 0.719336,0.27285 0.254248,0.27285 0.254248,0.77515 z m -0.378272,-0.29766 q -0.0021,-0.30592 -0.155029,-0.47335 -0.150895,-0.16744 -0.460953,-0.16744 -0.312126,0 -0.498161,0.18397 -0.183967,0.18397 -0.208772,0.45682 z"
         style="stroke-width:0.264583"
         id="path184" />
    </g>
    <g
       transform="translate(0.786153,0.3406)"
       style="font-size:4.23333px;line-height:1.25;font-family:Sans;-inkscape-font-specification:'Sans, Normal';fill:#ffffff;stroke-width:0.264583"
       id="text2493"
       aria-label="Out">
      <path
         id="path2495"
         style="fill:#ffffff;stroke-width:0.264583"
         d="m 21.68398,284.57692 q 0.188102,0.20671 0.287321,0.50643 0.101285,0.29972 0.101285,0.68006 0,0.38034 -0.103352,0.68213 -0.101286,0.29972 -0.285254,0.50023 -0.190169,0.20877 -0.450618,0.31419 -0.258382,0.10542 -0.591178,0.10542 -0.324528,0 -0.591178,-0.10749 -0.264583,-0.10749 -0.450618,-0.31212 -0.186035,-0.20464 -0.287321,-0.5023 -0.09922,-0.29765 -0.09922,-0.68006 0,-0.3762 0.09922,-0.67386 0.09922,-0.29972 0.289388,-0.51263 0.181901,-0.20257 0.450618,-0.31006 0.270784,-0.10748 0.589111,-0.10748 0.330729,0 0.593245,0.10955 0.264583,0.10749 0.448551,0.30799 z m -0.03721,1.18649 q 0,-0.59945 -0.268717,-0.92397 -0.268718,-0.3266 -0.733805,-0.3266 -0.469222,0 -0.737939,0.3266 -0.26665,0.32452 -0.26665,0.92397 0,0.60565 0.272851,0.92811 0.272852,0.32039 0.731738,0.32039 0.458886,0 0.729671,-0.32039 0.272851,-0.32246 0.272851,-0.92811 z" />
      <path
         id="path2497"
         style="fill:#ffffff;stroke-width:0.264583"
         d="m 24.604729,287.3013 h -0.388606 v -0.25631 q -0.19637,0.15502 -0.376204,0.23771 -0.179834,0.0827 -0.396875,0.0827 -0.363802,0 -0.566373,-0.22118 -0.202572,-0.22324 -0.202572,-0.65319 v -1.49861 h 0.388607 v 1.31465 q 0,0.1757 0.01654,0.30179 0.01654,0.12402 0.07028,0.2129 0.05581,0.091 0.144694,0.13229 0.08888,0.0414 0.258382,0.0414 0.150895,0 0.328662,-0.0786 0.179834,-0.0786 0.334863,-0.20051 v -1.72392 h 0.388606 z" />
      <path
         id="path2499"
         style="fill:#ffffff;stroke-width:0.264583"
         d="m 26.568432,287.28063 q -0.109554,0.0289 -0.239778,0.0475 -0.128157,0.0186 -0.229443,0.0186 -0.353467,0 -0.537435,-0.19017 -0.183968,-0.19017 -0.183968,-0.60979 v -1.22783 h -0.262516 v -0.32659 h 0.262516 v -0.66353 h 0.388607 v 0.66353 h 0.802017 v 0.32659 h -0.802017 v 1.05214 q 0,0.1819 0.0083,0.28525 0.0083,0.10128 0.05788,0.19017 0.04548,0.0827 0.124023,0.12195 0.08062,0.0372 0.243913,0.0372 0.09508,0 0.198437,-0.0269 0.103353,-0.0289 0.148828,-0.0475 h 0.02067 z" />
    </g>
    <circle
       inkscape:label="noise"
       r="4"
       cy="232.49998"
       cx="20"
       id="path4954-2-5"
       style="display:inline;opacity:1;vector-effect:none;fill:#00ffff;fill-opacity:1;fill-rule:evenodd;stroke:none;stroke-width:1;stroke-linecap:butt;stroke-linejoin:miter;stroke-miterlimit:4;stroke-dasharray:none;stroke-dashoffset:0;stroke-opacity:1;paint-order:normal" />
    <circle
       r="2"
       inkscape:label="trig"
       style="display:inline;opacity:1;vector-effect:none;fill:#0033ff;fill-opacity:1;fill-rule:evenodd;stroke:none;stroke-width:0.5;stroke-linecap:butt;stroke-linejoin:miter;stroke-miterlimit:4;stroke-dasharray:none;stroke-dashoffset:0;stroke-opacity:1;paint-order:normal"
       id="circle4956"
       cx="8"
       cy="277.49997" />
    <circle
       r="2"
       inkscape:label="offset"
       cy="192.49998"
       cx="8"
       id="path4954"
       style="display:inline;opacity:1;vector-effect:none;fill:#0033ff;fill-opacity:1;fill-rule:evenodd;stroke:none;stroke-width:0.5;stroke-linecap:butt;stroke-linejoin:miter;stroke-miterlimit:4;stroke-dasharray:none;stroke-dashoffset:0;stroke-opacity:1;paint-order:normal" />
    <circle
       inkscape:label="output"
       r="4"
       cy="212.49998"
       cx="20"
       id="circle4958"
       style="display:inline;opacity:1;vector-effect:none;fill:#008080;fill-opacity:1;fill-rule:evenodd;stroke:none;stroke-width:1;stroke-linecap:butt;stroke-linejoin:miter;stroke-miterlimit:4;stroke-dasharray:none;stroke-dashoffset:0;stroke-opacity:1;paint-order:normal" />
    <circle
       style="display:inline;opacity:1;vector-effect:none;fill:#ff0000;fill-opacity:1;fill-rule:evenodd;stroke:none;stroke-width:1;stroke-linecap:butt;stroke-linejoin:miter;stroke-miterlimit:4;stroke-dasharray:none;stroke-dashoffset:0;stroke-opacity:1;paint-order:normal"
       id="circle66"
       cx="20"
       cy="192.49998"
       r="4"
       inkscape:label="range" />
    <circle
       style="display:inline;opacity:1;vector-effect:none;fill:#0033ff;fill-opacity:1;fill-rule:evenodd;stroke:none;stroke-width:0.499999;stroke-linecap:butt;stroke-linejoin:miter;stroke-miterlimit:4;stroke-dasharray:none;stroke-dashoffset:0;stroke-opacity:1;paint-order:normal"
       id="path4954-0"
       cx="8"
       cy="212.49998"
       inkscape:label="offset"
       r="2" />
    <circle
       inkscape:label="noise"
       cy="252.49998"
       cx="8"
       id="path4954-2-39"
       style="display:inline;opacity:1;vector-effect:none;fill:#0033ff;fill-opacity:1;fill-rule:evenodd;stroke:none;stroke-width:0.499999;stroke-linecap:butt;stroke-linejoin:miter;stroke-miterlimit:4;stroke-dasharray:none;stroke-dashoffset:0;stroke-opacity:1;paint-order:normal"
       r="2" />
    <circle
       r="4"
       cy="277.49997"
       cx="24"
       id="circle4956-4"
       style="display:inline;opacity:1;vector-effect:none;fill:#00ff00;fill-opacity:1;fill-rule:evenodd;stroke:none;stroke-width:1;stroke-linecap:butt;stroke-linejoin:miter;stroke-miterlimit:4;stroke-dasharray:none;stroke-dashoffset:0;stroke-opacity:1;paint-order:normal"
       inkscape:label="trig" />
    <path
       style="fill:#ffff00;stroke:#000000;stroke-width:0.264583px;stroke-linecap:butt;stroke-linejoin:miter;stroke-opacity:1"
       d="m 22.584077,178.98882 0.755952,4.58296 2.078869,-1.88988 -3.496279,-1.6064 2.882068,3.68527 0.236235,-5.10268 -2.551339,4.63021 3.307291,-2.88207 z"
       id="path1000" />
  </g>
</svg>
