<?xml version="1.0" encoding="UTF-8" standalone="no"?>
<svg
   xmlns:dc="http://purl.org/dc/elements/1.1/"
   xmlns:cc="http://creativecommons.org/ns#"
   xmlns:rdf="http://www.w3.org/1999/02/22-rdf-syntax-ns#"
   xmlns:svg="http://www.w3.org/2000/svg"
   xmlns="http://www.w3.org/2000/svg"
   xmlns:sodipodi="http://sodipodi.sourceforge.net/DTD/sodipodi-0.dtd"
   xmlns:inkscape="http://www.inkscape.org/namespaces/inkscape"
   sodipodi:docname="IOUPlate.svg"
   inkscape:version="1.0 (4035a4f, 2020-05-01)"
   id="svg8"
   version="1.1"
   viewBox="0 0 30.480002 128.50002"
   height="128.5mm"
   width="30.48mm">
  <defs
     id="defs2" />
  <sodipodi:namedview
     inkscape:document-rotation="0"
     inkscape:snap-nodes="false"
     inkscape:snap-bbox-midpoints="true"
     inkscape:window-maximized="0"
     inkscape:window-y="23"
     inkscape:window-x="0"
     inkscape:window-height="1034"
     inkscape:window-width="1313"
     inkscape:snap-bbox-edge-midpoints="false"
     inkscape:bbox-nodes="false"
     inkscape:snap-page="true"
     inkscape:snap-bbox="true"
     units="mm"
     showgrid="false"
     inkscape:current-layer="layer1"
     inkscape:document-units="mm"
     inkscape:cy="242.83465"
     inkscape:cx="76.799999"
     inkscape:zoom="1.7007458"
     inkscape:pageshadow="2"
     inkscape:pageopacity="0.0"
     borderopacity="1.0"
     bordercolor="#666666"
     pagecolor="#ffffff"
     id="base" />
  <metadata
     id="metadata5">
    <rdf:RDF>
      <cc:Work
         rdf:about="">
        <dc:format>image/svg+xml</dc:format>
        <dc:type
           rdf:resource="http://purl.org/dc/dcmitype/StillImage" />
        <dc:title />
      </cc:Work>
    </rdf:RDF>
  </metadata>
  <g
     style="display:inline"
     transform="translate(0,-168.49998)"
     id="layer1"
     inkscape:groupmode="layer"
     inkscape:label="Layer 1">
    <rect
       y="168.63361"
       x="-0.0053724367"
       height="128.5"
       width="30.48"
       id="rect420"
       style="display:inline;opacity:1;vector-effect:none;fill:#10347b;fill-opacity:1;fill-rule:evenodd;stroke:none;stroke-width:0.649359;stroke-linecap:butt;stroke-linejoin:miter;stroke-miterlimit:4;stroke-dasharray:none;stroke-dashoffset:0;stroke-opacity:1;paint-order:normal" />
    <rect
       ry="0"
       y="187.30409"
       x="16.327"
       height="54.742561"
       width="12"
       id="rect75"
       style="fill:#000000;fill-opacity:1;stroke-width:0.467344" />
    <text
       id="text50"
       y="173.92349"
       x="7.2162771"
       style="font-style:normal;font-weight:normal;font-size:10.5833px;line-height:1.25;font-family:sans-serif;fill:#000000;fill-opacity:1;stroke:none;stroke-width:0.264583"
       xml:space="preserve"><tspan
         style="stroke-width:0.264583"
         y="173.92349"
         x="7.2162771"
         id="tspan48"
         sodipodi:role="line" /></text>
    <text
       id="text54"
       y="177.93254"
       x="5.6126599"
       style="font-style:normal;font-weight:normal;font-size:10.5833px;line-height:1.25;font-family:sans-serif;fill:#000000;fill-opacity:1;stroke:none;stroke-width:0.264583"
       xml:space="preserve"><tspan
         style="stroke-width:0.264583"
         y="177.93254"
         x="5.6126599"
         id="tspan52"
         sodipodi:role="line" /></text>
    <circle
       inkscape:label="time"
       r="4"
       cy="240.49998"
       cx="8.3999996"
       id="path4954-2-3"
       style="display:inline;opacity:1;vector-effect:none;fill:#808000;fill-opacity:1;fill-rule:evenodd;stroke:none;stroke-width:1;stroke-linecap:butt;stroke-linejoin:miter;stroke-miterlimit:4;stroke-dasharray:none;stroke-dashoffset:0;stroke-opacity:1;paint-order:normal" />
    <circle
       inkscape:label="trig"
       style="display:inline;opacity:1;vector-effect:none;fill:#00ff00;fill-opacity:1;fill-rule:evenodd;stroke:none;stroke-width:1;stroke-linecap:butt;stroke-linejoin:miter;stroke-miterlimit:4;stroke-dasharray:none;stroke-dashoffset:0;stroke-opacity:1;paint-order:normal"
       id="circle4956"
       cx="22.400333"
       cy="210.49998"
       r="4" />
    <circle
       inkscape:label="noise"
       cy="253.49998"
       cx="8.3999996"
       id="path4954-2-39"
       style="display:inline;opacity:1;vector-effect:none;fill:#0033ff;fill-opacity:1;fill-rule:evenodd;stroke:none;stroke-width:0.499999;stroke-linecap:butt;stroke-linejoin:miter;stroke-miterlimit:4;stroke-dasharray:none;stroke-dashoffset:0;stroke-opacity:1;paint-order:normal"
       r="2" />
    <circle
       r="4"
       cy="193.49998"
       cx="22.400333"
       id="circle4956-4"
       style="display:inline;opacity:1;vector-effect:none;fill:#00ff00;fill-opacity:1;fill-rule:evenodd;stroke:none;stroke-width:1;stroke-linecap:butt;stroke-linejoin:miter;stroke-miterlimit:4;stroke-dasharray:none;stroke-dashoffset:0;stroke-opacity:1;paint-order:normal"
       inkscape:label="trig" />
    <path
       style="fill:#ffff00;stroke:#000000;stroke-width:0.264583px;stroke-linecap:butt;stroke-linejoin:miter;stroke-opacity:1"
       d="m 7.2270135,170.52216 0.755952,4.58296 2.0788685,-1.88988 -3.4962782,-1.6064 2.8820678,3.68527 0.2362347,-5.10268 -2.5513388,4.63021 3.3072905,-2.88207 z"
       id="path1000" />
    <circle
       style="display:inline;opacity:1;vector-effect:none;fill:#808000;fill-opacity:1;fill-rule:evenodd;stroke:none;stroke-width:1;stroke-linecap:butt;stroke-linejoin:miter;stroke-miterlimit:4;stroke-dasharray:none;stroke-dashoffset:0;stroke-opacity:1;paint-order:normal"
       id="path4954-2-3-5"
       cx="8.3999996"
       cy="214.49998"
       r="4"
       inkscape:label="time" />
    <circle
       r="2"
       style="display:inline;opacity:1;vector-effect:none;fill:#0033ff;fill-opacity:1;fill-rule:evenodd;stroke:none;stroke-width:0.499999;stroke-linecap:butt;stroke-linejoin:miter;stroke-miterlimit:4;stroke-dasharray:none;stroke-dashoffset:0;stroke-opacity:1;paint-order:normal"
       id="path4954-2-39-9"
       cx="8.3999996"
       cy="227.49998"
       inkscape:label="noise" />
    <circle
       r="4"
       cy="229.49998"
       cx="22.400333"
       id="circle4956-5"
       style="display:inline;opacity:1;vector-effect:none;fill:#00ff00;fill-opacity:1;fill-rule:evenodd;stroke:none;stroke-width:1;stroke-linecap:butt;stroke-linejoin:miter;stroke-miterlimit:4;stroke-dasharray:none;stroke-dashoffset:0;stroke-opacity:1;paint-order:normal"
       inkscape:label="trig" />
    <circle
       style="display:inline;opacity:1;vector-effect:none;fill:#808000;fill-opacity:1;fill-rule:evenodd;stroke:none;stroke-width:1;stroke-linecap:butt;stroke-linejoin:miter;stroke-miterlimit:4;stroke-dasharray:none;stroke-dashoffset:0;stroke-opacity:1;paint-order:normal"
       id="path4954-2-3-3"
       cx="8.3999996"
       cy="268.49997"
       r="4"
       inkscape:label="time" />
    <circle
       r="2"
       style="display:inline;opacity:1;vector-effect:none;fill:#0033ff;fill-opacity:1;fill-rule:evenodd;stroke:none;stroke-width:0.499999;stroke-linecap:butt;stroke-linejoin:miter;stroke-miterlimit:4;stroke-dasharray:none;stroke-dashoffset:0;stroke-opacity:1;paint-order:normal"
       id="path4954-2-39-4"
       cx="8.3999996"
       cy="281.49997"
       inkscape:label="noise" />
    <g
       aria-label="Noise"
       id="text951"
       style="font-size:3.52777px;line-height:1.25;font-family:Sans;-inkscape-font-specification:'Sans, Normal';fill:#ffffff;fill-opacity:1;stroke-width:0.264583"
       transform="matrix(0.625,0,0,0.625,2.687181,75.848068)">
      <path
         d="m 28.532871,200.70364 h -0.422023 l -1.216116,-2.29442 v 2.29442 h -0.318671 v -2.56486 h 0.528821 l 1.109318,2.09461 v -2.09461 h 0.318671 z"
         style="fill:#ffffff;fill-opacity:1;stroke-width:0.264583"
         id="path1160" />
      <path
         d="m 30.829022,199.74246 q 0,0.47026 -0.241156,0.74242 -0.241156,0.27216 -0.645954,0.27216 -0.408243,0 -0.649399,-0.27216 -0.239434,-0.27216 -0.239434,-0.74242 0,-0.47025 0.239434,-0.74241 0.241156,-0.27389 0.649399,-0.27389 0.404798,0 0.645954,0.27389 0.241156,0.27216 0.241156,0.74241 z m -0.334173,0 q 0,-0.37379 -0.146417,-0.55465 -0.146416,-0.18259 -0.40652,-0.18259 -0.263549,0 -0.409966,0.18259 -0.144693,0.18086 -0.144693,0.55465 0,0.36174 0.146416,0.5495 0.146416,0.18603 0.408243,0.18603 0.258382,0 0.404798,-0.18431 0.148139,-0.18604 0.148139,-0.55122 z"
         style="fill:#ffffff;fill-opacity:1;stroke-width:0.264583"
         id="path1162" />
      <path
         d="m 31.679959,198.45745 h -0.36518 v -0.3359 h 0.36518 z m -0.02067,2.24619 H 31.33545 v -1.92408 h 0.323838 z"
         style="fill:#ffffff;fill-opacity:1;stroke-width:0.264583"
         id="path1164" />
      <path
         d="m 33.67811,200.14898 q 0,0.26355 -0.218763,0.43236 -0.217041,0.16881 -0.594278,0.16881 -0.213596,0 -0.39274,-0.0499 -0.177422,-0.0517 -0.298,-0.11197 v -0.36345 h 0.01722 q 0.153307,0.11541 0.341064,0.18431 0.187757,0.0672 0.360012,0.0672 0.213595,0 0.334173,-0.0689 0.120578,-0.0689 0.120578,-0.21704 0,-0.11369 -0.06546,-0.17226 -0.06546,-0.0586 -0.251492,-0.0999 -0.0689,-0.0155 -0.180867,-0.0362 -0.110243,-0.0207 -0.201538,-0.0448 -0.253214,-0.0672 -0.360011,-0.19637 -0.105075,-0.13091 -0.105075,-0.32039 0,-0.11885 0.04823,-0.22393 0.04995,-0.10507 0.149861,-0.18776 0.09646,-0.081 0.244601,-0.12747 0.149862,-0.0482 0.334174,-0.0482 0.172254,0 0.347954,0.0431 0.177422,0.0413 0.294555,0.10163 v 0.34623 h -0.01723 q -0.124023,-0.0913 -0.301445,-0.15331 -0.177422,-0.0637 -0.347954,-0.0637 -0.177422,0 -0.299722,0.0689 -0.122301,0.0672 -0.122301,0.20154 0,0.11885 0.07407,0.17914 0.07235,0.0603 0.234266,0.0982 0.08957,0.0207 0.199815,0.0413 0.111966,0.0207 0.186035,0.0379 0.225653,0.0517 0.347954,0.17743 0.122301,0.12746 0.122301,0.33761 z"
         style="fill:#ffffff;fill-opacity:1;stroke-width:0.264583"
         id="path1166" />
      <path
         d="m 35.753775,199.77519 h -1.417654 q 0,0.17742 0.0534,0.31006 0.0534,0.13091 0.146416,0.21532 0.08957,0.0827 0.211873,0.12402 0.124024,0.0413 0.272162,0.0413 0.19637,0 0.394463,-0.0775 0.199815,-0.0792 0.28422,-0.15503 h 0.01723 v 0.35312 q -0.163642,0.0689 -0.334173,0.11541 -0.170532,0.0465 -0.35829,0.0465 -0.478867,0 -0.747584,-0.25838 -0.268717,-0.26011 -0.268717,-0.73725 0,-0.47198 0.25666,-0.74931 0.258381,-0.27733 0.678682,-0.27733 0.389295,0 0.599445,0.22738 0.211873,0.22737 0.211873,0.64595 z m -0.315225,-0.24804 q -0.0017,-0.25494 -0.129191,-0.39447 -0.125746,-0.13952 -0.384128,-0.13952 -0.260104,0 -0.415133,0.1533 -0.153306,0.15331 -0.173977,0.38069 z"
         style="fill:#ffffff;fill-opacity:1;stroke-width:0.264583"
         id="path1168" />
    </g>
    <text
       xml:space="preserve"
       style="font-size:3.52777px;line-height:1.25;font-family:Sans;-inkscape-font-specification:'Sans, Normal';stroke-width:0.264583"
       x="27.214285"
       y="217.44789"
       id="text955"><tspan
         sodipodi:role="line"
         id="tspan953"
         x="27.214285"
         y="217.44789"
         style="stroke-width:0.264583" /></text>
    <g
       aria-label="O-U"
       id="text951-1"
       style="font-size:3.52777px;line-height:1.25;font-family:Sans;-inkscape-font-specification:'Sans, Normal';display:inline;fill:#ffffff;fill-opacity:1;stroke-width:0.264583"
       transform="matrix(0.625,0,0,0.625,3.154672,81.380303)">
      <path
         d="m 29.829122,216.02624 q 0.156752,0.17226 0.239434,0.42202 0.08441,0.24977 0.08441,0.56672 0,0.31695 -0.08613,0.56844 -0.08441,0.24977 -0.237712,0.41686 -0.158474,0.17397 -0.375514,0.26182 -0.215318,0.0879 -0.492648,0.0879 -0.270439,0 -0.492647,-0.0896 -0.220486,-0.0896 -0.375515,-0.2601 -0.155029,-0.17053 -0.239433,-0.41858 -0.08268,-0.24805 -0.08268,-0.56672 0,-0.3135 0.08268,-0.56155 0.08268,-0.24977 0.241156,-0.42719 0.151584,-0.16881 0.375514,-0.25838 0.225654,-0.0896 0.490925,-0.0896 0.275607,0 0.49437,0.0913 0.220486,0.0896 0.373792,0.25666 z m -0.03101,0.98874 q 0,-0.49954 -0.223931,-0.76998 -0.223931,-0.27216 -0.611503,-0.27216 -0.391018,0 -0.614948,0.27216 -0.222209,0.27044 -0.222209,0.76998 0,0.50471 0.227376,0.77342 0.227376,0.267 0.609781,0.267 0.382405,0 0.608058,-0.267 0.227376,-0.26871 0.227376,-0.77342 z"
         style="fill:#ffffff;fill-opacity:1;stroke-width:0.264583"
         id="path1184" />
      <path
         d="M 31.687747,217.33021 H 30.61288 v -0.31178 h 1.074867 z"
         style="fill:#ffffff;fill-opacity:1;stroke-width:0.264583"
         id="path1186" />
      <path
         d="m 34.230222,217.26647 q 0,0.27906 -0.06201,0.48748 -0.06029,0.20671 -0.199815,0.34451 -0.132636,0.13092 -0.310058,0.1912 -0.177422,0.0603 -0.41341,0.0603 -0.241156,0 -0.420301,-0.0637 -0.179144,-0.0637 -0.301445,-0.18776 -0.139526,-0.14125 -0.201538,-0.34106 -0.06029,-0.19982 -0.06029,-0.49093 v -1.53478 h 0.341064 v 1.55201 q 0,0.20843 0.02756,0.329 0.02928,0.12058 0.09646,0.21877 0.07579,0.11196 0.204983,0.16881 0.130913,0.0568 0.313503,0.0568 0.184312,0 0.313503,-0.0551 0.129191,-0.0568 0.206705,-0.17053 0.06718,-0.0982 0.09474,-0.22393 0.02928,-0.12747 0.02928,-0.31523 v -1.56062 h 0.341064 z"
         style="fill:#ffffff;fill-opacity:1;stroke-width:0.264583"
         id="path1188" />
    </g>
    <g
       aria-label="I-O-U"
       id="text951-1-3"
       style="font-size:3.52777px;line-height:1.25;font-family:Sans;-inkscape-font-specification:'Sans, Normal';display:inline;fill:#ffffff;fill-opacity:1;stroke-width:0.264583"
       transform="matrix(0.625,0,0,0.625,3.203227,88.306672)">
      <path
         d="m 27.385121,238.17799 h -1.012856 v -0.26182 h 0.335896 v -2.04122 h -0.335896 v -0.26182 h 1.012856 v 0.26182 h -0.335896 v 2.04122 h 0.335896 z"
         style="fill:#ffffff;fill-opacity:1;stroke-width:0.264583"
         id="path1191" />
      <path
         d="m 28.962971,237.21165 h -1.074867 v -0.31178 h 1.074867 z"
         style="fill:#ffffff;fill-opacity:1;stroke-width:0.264583"
         id="path1193" />
      <path
         d="m 31.486498,235.90768 q 0.156751,0.17226 0.239433,0.42202 0.08441,0.24977 0.08441,0.56672 0,0.31695 -0.08613,0.56844 -0.0844,0.24977 -0.237711,0.41686 -0.158474,0.17397 -0.375515,0.26182 -0.215318,0.0879 -0.492647,0.0879 -0.27044,0 -0.492648,-0.0896 -0.220486,-0.0896 -0.375515,-0.2601 -0.155028,-0.17054 -0.239433,-0.41858 -0.08268,-0.24805 -0.08268,-0.56672 0,-0.3135 0.08268,-0.56155 0.08268,-0.24977 0.241156,-0.42719 0.151584,-0.16881 0.375515,-0.25838 0.225653,-0.0896 0.490925,-0.0896 0.275607,0 0.49437,0.0913 0.220485,0.0896 0.373792,0.25666 z m -0.03101,0.98874 q 0,-0.49954 -0.223931,-0.76998 -0.22393,-0.27216 -0.611503,-0.27216 -0.391017,0 -0.614948,0.27216 -0.222208,0.27044 -0.222208,0.76998 0,0.50471 0.227376,0.77342 0.227375,0.267 0.60978,0.267 0.382405,0 0.608058,-0.267 0.227376,-0.26871 0.227376,-0.77342 z"
         style="fill:#ffffff;fill-opacity:1;stroke-width:0.264583"
         id="path1195" />
      <path
         d="m 33.345123,237.21165 h -1.074868 v -0.31178 h 1.074868 z"
         style="fill:#ffffff;fill-opacity:1;stroke-width:0.264583"
         id="path1197" />
      <path
         d="m 35.887597,237.14791 q 0,0.27905 -0.06201,0.48748 -0.06029,0.20671 -0.199815,0.34451 -0.132636,0.13091 -0.310058,0.1912 -0.177422,0.0603 -0.413411,0.0603 -0.241156,0 -0.4203,-0.0637 -0.179145,-0.0637 -0.301446,-0.18776 -0.139526,-0.14125 -0.201537,-0.34106 -0.06029,-0.19982 -0.06029,-0.49093 v -1.53478 h 0.341063 v 1.55201 q 0,0.20843 0.02756,0.329 0.02928,0.12058 0.09646,0.21877 0.07579,0.11196 0.204982,0.16881 0.130914,0.0568 0.313503,0.0568 0.184312,0 0.313503,-0.0551 0.129191,-0.0568 0.206706,-0.17053 0.06718,-0.0982 0.09474,-0.22393 0.02928,-0.12747 0.02928,-0.31523 v -1.56062 h 0.341063 z"
         style="fill:#ffffff;fill-opacity:1;stroke-width:0.264583"
         id="path1199" />
    </g>
    <circle
       inkscape:label="noise"
       cy="253.49998"
       cx="22.400333"
       id="path4954-2-39-9-9"
       style="display:inline;opacity:1;vector-effect:none;fill:#0033ff;fill-opacity:1;fill-rule:evenodd;stroke:none;stroke-width:0.499999;stroke-linecap:butt;stroke-linejoin:miter;stroke-miterlimit:4;stroke-dasharray:none;stroke-dashoffset:0;stroke-opacity:1;paint-order:normal"
       r="2" />
    <circle
       inkscape:label="time"
       r="4"
       cy="268.49997"
       cx="22.400333"
       id="path4954-2-3-3-1"
       style="display:inline;opacity:1;vector-effect:none;fill:#808000;fill-opacity:1;fill-rule:evenodd;stroke:none;stroke-width:1;stroke-linecap:butt;stroke-linejoin:miter;stroke-miterlimit:4;stroke-dasharray:none;stroke-dashoffset:0;stroke-opacity:1;paint-order:normal" />
    <g
       aria-label="Ext"
       id="text951-2"
       style="font-size:3.52777px;line-height:1.25;font-family:Sans;-inkscape-font-specification:'Sans, Normal';display:inline;fill:#ffffff;fill-opacity:1;stroke-width:0.264583"
       transform="matrix(0.625,0,0,0.625,2.801935,96.922207)">
      <path
         d="m 30.514055,259.72272 h -1.689816 v -2.56487 h 1.689816 v 0.30317 h -1.348752 v 0.70279 h 1.348752 v 0.30317 h -1.348752 v 0.95257 h 1.348752 z"
         style="fill:#ffffff;fill-opacity:1;stroke-width:0.264583"
         id="path1211" />
      <path
         d="m 32.696518,259.72272 h -0.408243 l -0.546046,-0.73897 -0.549492,0.73897 H 30.8155 l 0.751029,-0.95946 -0.744139,-0.96462 h 0.408243 l 0.542602,0.72691 0.544323,-0.72691 h 0.37896 l -0.756197,0.94739 z"
         style="fill:#ffffff;fill-opacity:1;stroke-width:0.264583"
         id="path1213" />
      <path
         d="m 34.117617,259.70549 q -0.0913,0.0241 -0.199815,0.0396 -0.106798,0.0155 -0.191203,0.0155 -0.294555,0 -0.447861,-0.15847 -0.153307,-0.15847 -0.153307,-0.50815 v -1.02319 h -0.218763 v -0.27216 h 0.218763 v -0.55294 h 0.323839 v 0.55294 h 0.668347 v 0.27216 H 33.44927 v 0.87677 q 0,0.15159 0.0069,0.23771 0.0069,0.0844 0.04823,0.15848 0.0379,0.0689 0.103353,0.10163 0.06718,0.031 0.20326,0.031 0.07924,0 0.165364,-0.0224 0.08613,-0.0241 0.124023,-0.0396 h 0.01723 z"
         style="fill:#ffffff;fill-opacity:1;stroke-width:0.264583"
         id="path1215" />
    </g>
    <g
       aria-label="Mix"
       id="text951-2-4"
       style="font-size:3.52777px;line-height:1.25;font-family:Sans;-inkscape-font-specification:'Sans, Normal';display:inline;fill:#ffffff;fill-opacity:1;stroke-width:0.264583"
       transform="matrix(0.625,0,0,0.625,2.658726,103.26184)">
      <path
         d="m 30.579171,276.65594 h -0.341063 v -2.21002 l -0.713134,1.50378 h -0.20326 l -0.707965,-1.50378 v 2.21002 h -0.318671 v -2.56486 h 0.465087 l 0.68385,1.42799 0.661457,-1.42799 h 0.473699 z"
         style="fill:#ffffff;fill-opacity:1;stroke-width:0.264583"
         id="path1218" />
      <path
         d="m 31.59375,274.40975 h -0.36518 v -0.3359 h 0.36518 z m -0.02067,2.24619 h -0.323838 v -1.92408 h 0.323838 z"
         style="fill:#ffffff;fill-opacity:1;stroke-width:0.264583"
         id="path1220" />
      <path
         d="m 33.883011,276.65594 h -0.408243 l -0.546047,-0.73897 -0.549491,0.73897 h -0.377237 l 0.751029,-0.95945 -0.744139,-0.96463 h 0.408243 l 0.542601,0.72692 0.544324,-0.72692 h 0.37896 l -0.756197,0.9474 z"
         style="fill:#ffffff;fill-opacity:1;stroke-width:0.264583"
         id="path1222" />
    </g>
    <g
       aria-label="Spring"
       id="text951-2-4-9-7"
       style="font-size:3.52777px;line-height:1.25;font-family:Sans;-inkscape-font-specification:'Sans, Normal';display:inline;fill:#ffffff;fill-opacity:1;stroke-width:0.264583"
       transform="matrix(0.625,0,0,0.625,1.5630812,82.821653)">
      <path
         d="m 7.4046991,222.47809 q 0,0.14986 -0.070624,0.29628 -0.068902,0.14642 -0.1946474,0.24805 -0.1378035,0.11024 -0.3221157,0.17225 -0.1825897,0.062 -0.4409713,0.062 -0.2773296,0 -0.4995378,-0.0517 -0.2204856,-0.0517 -0.4495839,-0.15331 v -0.42719 h 0.024116 q 0.1946475,0.16192 0.449584,0.24977 0.2549365,0.0879 0.4788672,0.0879 0.3169481,0 0.4926476,-0.11886 0.177422,-0.11885 0.177422,-0.31695 0,-0.17053 -0.084405,-0.25149 -0.082682,-0.081 -0.2532139,-0.12574 -0.1291908,-0.0344 -0.2807747,-0.0568 -0.1498613,-0.0224 -0.3186706,-0.0568 -0.3410637,-0.0724 -0.506428,-0.24632 -0.1636416,-0.1757 -0.1636416,-0.45648 0,-0.32211 0.2721619,-0.5271 0.272162,-0.2067 0.6907401,-0.2067 0.2704394,0 0.4960927,0.0517 0.2256533,0.0517 0.3996302,0.12747 v 0.40308 h -0.024116 q -0.1464162,-0.12403 -0.3858499,-0.20498 -0.237711,-0.0827 -0.4874799,-0.0827 -0.2738845,0 -0.4409713,0.11369 -0.1653642,0.11369 -0.1653642,0.29283 0,0.1602 0.082682,0.25149 0.082682,0.0913 0.29111,0.13953 0.1102428,0.0241 0.313503,0.0586 0.2032602,0.0344 0.3445088,0.0706 0.2859423,0.0758 0.430636,0.2291 0.1446936,0.15331 0.1446936,0.42891 z"
         style="fill:#ffffff;fill-opacity:1;stroke-width:0.264583"
         id="path1171" />
      <path
         d="m 9.6198906,222.22488 q 0,0.23427 -0.067179,0.42891 -0.067179,0.19293 -0.1894798,0.32729 -0.1136879,0.12746 -0.2687169,0.19809 -0.1533064,0.0689 -0.3255608,0.0689 -0.1498613,0 -0.2721619,-0.0327 -0.1205781,-0.0327 -0.2463238,-0.10163 v 0.80615 H 7.9266299 v -2.63377 h 0.3238383 v 0.20154 q 0.1291908,-0.10852 0.2893874,-0.18087 0.1619191,-0.0741 0.3445087,-0.0741 0.3479539,0 0.5408789,0.26355 0.1946474,0.26183 0.1946474,0.72864 z m -0.3341735,0.009 q 0,-0.34795 -0.1188555,-0.52021 -0.1188556,-0.17225 -0.3651794,-0.17225 -0.139526,0 -0.2807746,0.0603 -0.1412486,0.0603 -0.2704394,0.15847 v 1.09037 q 0.1378035,0.062 0.2359885,0.0844 0.099908,0.0224 0.2256533,0.0224 0.2704394,0 0.4220232,-0.18259 0.1515839,-0.18259 0.1515839,-0.54088 z"
         style="fill:#ffffff;fill-opacity:1;stroke-width:0.264583"
         id="path1173" />
      <path
         d="m 11.325209,221.63921 h -0.01722 q -0.07235,-0.0172 -0.141249,-0.0241 -0.06718,-0.009 -0.160196,-0.009 -0.149862,0 -0.289388,0.0672 -0.139526,0.0655 -0.268717,0.17053 v 1.36597 h -0.323838 v -1.92408 h 0.323838 v 0.28422 q 0.192925,-0.15503 0.339341,-0.21876 0.148139,-0.0655 0.301446,-0.0655 0.0844,0 0.1223,0.005 0.0379,0.003 0.113688,0.0155 z"
         style="fill:#ffffff;fill-opacity:1;stroke-width:0.264583"
         id="path1175" />
      <path
         d="m 11.981498,220.96398 h -0.365179 v -0.3359 h 0.365179 z m -0.02067,2.24619 h -0.323839 v -1.92408 h 0.323839 z"
         style="fill:#ffffff;fill-opacity:1;stroke-width:0.264583"
         id="path1177" />
      <path
         d="m 14.213916,223.21017 h -0.323839 v -1.09553 q 0,-0.13264 -0.0155,-0.24805 -0.0155,-0.11713 -0.05684,-0.18259 -0.04306,-0.0724 -0.124023,-0.1068 -0.08096,-0.0362 -0.21015,-0.0362 -0.132636,0 -0.27733,0.0655 -0.144693,0.0654 -0.277329,0.16708 v 1.4366 H 12.60506 v -1.92408 h 0.323838 v 0.2136 q 0.151584,-0.12575 0.313503,-0.19637 0.161919,-0.0706 0.332451,-0.0706 0.31178,0 0.475422,0.18776 0.163642,0.18776 0.163642,0.54088 z"
         style="fill:#ffffff;fill-opacity:1;stroke-width:0.264583"
         id="path1179" />
      <path
         d="m 16.398101,222.99141 q 0,0.4892 -0.222208,0.7183 -0.222208,0.2291 -0.68385,0.2291 -0.153307,0 -0.299723,-0.0224 -0.144693,-0.0207 -0.285942,-0.0603 v -0.33073 h 0.01722 q 0.07924,0.031 0.251492,0.0758 0.172254,0.0465 0.344509,0.0465 0.165364,0 0.273884,-0.0396 0.10852,-0.0396 0.168809,-0.11024 0.06029,-0.0672 0.08613,-0.16192 0.02584,-0.0947 0.02584,-0.21187 v -0.1757 q -0.146417,0.11713 -0.280775,0.1757 -0.132636,0.0568 -0.339341,0.0568 -0.344509,0 -0.547769,-0.24805 -0.201538,-0.24976 -0.201538,-0.70279 0,-0.24805 0.0689,-0.42719 0.07062,-0.18087 0.191202,-0.31178 0.111966,-0.1223 0.272162,-0.18948 0.160197,-0.0689 0.318671,-0.0689 0.167087,0 0.279052,0.0345 0.113688,0.0327 0.239434,0.10164 l 0.02067,-0.0827 h 0.303168 z m -0.323838,-0.31006 v -1.04903 q -0.129191,-0.0586 -0.241156,-0.0827 -0.110243,-0.0258 -0.220486,-0.0258 -0.266994,0 -0.420301,0.17915 -0.153306,0.17914 -0.153306,0.52021 0,0.32384 0.113688,0.49092 0.113688,0.16709 0.377237,0.16709 0.141248,0 0.282497,-0.0534 0.142971,-0.0551 0.261827,-0.14642 z"
         style="fill:#ffffff;fill-opacity:1;stroke-width:0.264583"
         id="path1181" />
    </g>
    <g
       aria-label="Damp"
       id="text951-2-4-9-7-5"
       style="font-size:3.52777px;line-height:1.25;font-family:Sans;-inkscape-font-specification:'Sans, Normal';display:inline;fill:#ffffff;fill-opacity:1;stroke-width:0.264583"
       transform="matrix(0.625,0,0,0.625,1.9420635,92.880952)">
      <path
         d="m 7.7078669,247.33029 q 0,0.34967 -0.1533064,0.63389 -0.1515839,0.28422 -0.4047979,0.44098 -0.1756994,0.10852 -0.39274,0.15675 -0.215318,0.0482 -0.5684395,0.0482 H 5.5409066 v -2.56487 h 0.6407863 q 0.3755146,0 0.5960002,0.0551 0.2222082,0.0534 0.3755146,0.14814 0.2618267,0.16364 0.4082429,0.4358 0.1464163,0.27217 0.1464163,0.64596 z m -0.3565666,-0.005 q 0,-0.30145 -0.1050752,-0.50815 -0.1050752,-0.20671 -0.313503,-0.32556 -0.1515839,-0.0861 -0.3221157,-0.11886 -0.1705319,-0.0344 -0.4082429,-0.0344 H 5.8819703 v 1.97921 h 0.3203932 q 0.2463237,0 0.4289134,-0.0362 0.1843122,-0.0362 0.3376186,-0.13436 0.1912024,-0.1223 0.2859423,-0.32211 0.096463,-0.19982 0.096463,-0.49954 z"
         style="fill:#ffffff;fill-opacity:1;stroke-width:0.264583"
         id="path1202" />
      <path
         d="M 9.7318559,248.61014 H 9.4097402 v -0.20498 q -0.043064,0.0293 -0.117133,0.0827 -0.072347,0.0517 -0.1412486,0.0827 -0.08096,0.0396 -0.1860347,0.0655 -0.1050752,0.0276 -0.2463238,0.0276 -0.2601041,0 -0.4409713,-0.17226 -0.1808671,-0.17225 -0.1808671,-0.43925 0,-0.21876 0.093017,-0.35312 0.09474,-0.13608 0.2687169,-0.21359 0.1756994,-0.0775 0.4220232,-0.10508 0.2463238,-0.0276 0.528821,-0.0413 v -0.0499 q 0,-0.11025 -0.039618,-0.18259 -0.037896,-0.0724 -0.1102428,-0.11369 -0.068902,-0.0396 -0.1653642,-0.0534 -0.096462,-0.0138 -0.2015377,-0.0138 -0.1274682,0 -0.2842197,0.0344 -0.1567515,0.0327 -0.3238383,0.0965 h -0.017225 v -0.329 q 0.09474,-0.0258 0.2738845,-0.0568 0.1791445,-0.031 0.3531215,-0.031 0.2032602,0 0.3531215,0.0344 0.1515839,0.0327 0.2618267,0.11369 0.1085202,0.0792 0.1653642,0.20498 0.056844,0.12574 0.056844,0.31178 z m -0.3221157,-0.4737 v -0.53571 q -0.1481388,0.009 -0.3496764,0.0258 -0.1998151,0.0172 -0.3169481,0.05 -0.1395261,0.0396 -0.2256533,0.12402 -0.086127,0.0827 -0.086127,0.2291 0,0.16536 0.099907,0.24977 0.099908,0.0827 0.3048903,0.0827 0.1705318,0 0.3117804,-0.0655 0.1412486,-0.0672 0.2618267,-0.16019 z"
         style="fill:#ffffff;fill-opacity:1;stroke-width:0.264583"
         id="path1204" />
      <path
         d="m 13.166609,248.61014 h -0.323838 v -1.09554 q 0,-0.12402 -0.01206,-0.23943 -0.01033,-0.11541 -0.04651,-0.18432 -0.03962,-0.0741 -0.113688,-0.11196 -0.07407,-0.0379 -0.213595,-0.0379 -0.136081,0 -0.272162,0.0689 -0.136081,0.0672 -0.272162,0.17226 0.0052,0.0396 0.0086,0.093 0.0034,0.0517 0.0034,0.10335 v 1.23162 h -0.323839 v -1.09554 q 0,-0.12747 -0.01206,-0.24116 -0.01034,-0.11541 -0.04651,-0.18431 -0.03962,-0.0741 -0.113688,-0.11024 -0.07407,-0.0379 -0.213595,-0.0379 -0.132636,0 -0.266995,0.0655 -0.132636,0.0655 -0.265271,0.16709 v 1.4366 h -0.323839 v -1.92408 h 0.323839 v 0.21359 q 0.151583,-0.12574 0.301445,-0.19637 0.151584,-0.0706 0.322115,-0.0706 0.19637,0 0.332451,0.0827 0.137804,0.0827 0.204983,0.2291 0.19637,-0.16537 0.358289,-0.23771 0.161919,-0.0741 0.346232,-0.0741 0.316948,0 0.466809,0.19292 0.151584,0.1912 0.151584,0.53571 z"
         style="fill:#ffffff;fill-opacity:1;stroke-width:0.264583"
         id="path1206" />
      <path
         d="m 15.48343,247.62484 q 0,0.23427 -0.06718,0.42892 -0.06718,0.19292 -0.18948,0.32728 -0.113688,0.12747 -0.268717,0.19809 -0.153306,0.0689 -0.325561,0.0689 -0.149861,0 -0.272162,-0.0327 -0.120578,-0.0327 -0.246324,-0.10163 v 0.80615 h -0.323838 v -2.63377 h 0.323838 v 0.20153 q 0.129191,-0.10852 0.289388,-0.18086 0.161919,-0.0741 0.344509,-0.0741 0.347953,0 0.540878,0.26355 0.194648,0.26182 0.194648,0.72863 z m -0.334174,0.009 q 0,-0.34796 -0.118855,-0.52021 -0.118856,-0.17226 -0.36518,-0.17226 -0.139526,0 -0.280774,0.0603 -0.141249,0.0603 -0.27044,0.15848 v 1.09037 q 0.137804,0.062 0.235989,0.0844 0.09991,0.0224 0.225653,0.0224 0.27044,0 0.422023,-0.18259 0.151584,-0.18259 0.151584,-0.54087 z"
         style="fill:#ffffff;fill-opacity:1;stroke-width:0.264583"
         id="path1208" />
    </g>
    <g
       aria-label="Noise"
       id="text951-2-4-9"
       style="font-size:3.52777px;line-height:1.25;font-family:Sans;-inkscape-font-specification:'Sans, Normal';display:inline;fill:#ffffff;fill-opacity:1;stroke-width:0.264583"
       transform="matrix(0.625,0,0,0.625,1.7986638,70.101513)">
      <path
         d="M 7.4977194,198.86853 H 7.0756961 l -1.216116,-2.29443 v 2.29443 H 5.5409094 v -2.56487 h 0.528821 l 1.1093183,2.09462 v -2.09462 h 0.3186707 z"
         style="fill:#ffffff;fill-opacity:1;stroke-width:0.264583"
         id="path1149" />
      <path
         d="m 9.7938706,197.90735 q 0,0.47026 -0.2411562,0.74242 -0.2411561,0.27216 -0.6459539,0.27216 -0.408243,0 -0.6493991,-0.27216 -0.2394336,-0.27216 -0.2394336,-0.74242 0,-0.47025 0.2394336,-0.74242 0.2411561,-0.27388 0.6493991,-0.27388 0.4047978,0 0.6459539,0.27388 0.2411562,0.27217 0.2411562,0.74242 z m -0.3341735,0 q 0,-0.37379 -0.1464163,-0.55466 -0.1464162,-0.18259 -0.4065203,-0.18259 -0.2635493,0 -0.4099655,0.18259 -0.1446937,0.18087 -0.1446937,0.55466 0,0.36173 0.1464162,0.54949 0.1464163,0.18604 0.408243,0.18604 0.2583816,0 0.4047978,-0.18432 0.1481388,-0.18603 0.1481388,-0.55121 z"
         style="fill:#ffffff;fill-opacity:1;stroke-width:0.264583"
         id="path1151" />
      <path
         d="m 10.644807,196.62233 h -0.365179 v -0.33589 h 0.365179 z m -0.02067,2.2462 h -0.323838 v -1.92408 h 0.323838 z"
         style="fill:#ffffff;fill-opacity:1;stroke-width:0.264583"
         id="path1153" />
      <path
         d="m 12.642958,198.31387 q 0,0.26355 -0.218763,0.43236 -0.21704,0.16881 -0.594278,0.16881 -0.213595,0 -0.39274,-0.0499 -0.177422,-0.0517 -0.298,-0.11197 v -0.36346 h 0.01723 q 0.153306,0.11541 0.341063,0.18432 0.187758,0.0672 0.360012,0.0672 0.213596,0 0.334174,-0.0689 0.120578,-0.0689 0.120578,-0.21704 0,-0.11369 -0.06546,-0.17225 -0.06546,-0.0586 -0.251491,-0.0999 -0.0689,-0.0155 -0.180867,-0.0362 -0.110243,-0.0207 -0.201538,-0.0448 -0.253214,-0.0672 -0.360012,-0.19637 -0.105075,-0.13091 -0.105075,-0.32039 0,-0.11886 0.04823,-0.22393 0.04995,-0.10508 0.149862,-0.18776 0.09646,-0.081 0.244601,-0.12747 0.149861,-0.0482 0.334173,-0.0482 0.172255,0 0.347954,0.0431 0.177422,0.0413 0.294555,0.10163 v 0.34624 h -0.01722 q -0.124023,-0.0913 -0.301445,-0.15331 -0.177422,-0.0637 -0.347954,-0.0637 -0.177422,0 -0.299723,0.0689 -0.122301,0.0672 -0.122301,0.20153 0,0.11886 0.07407,0.17915 0.07235,0.0603 0.234266,0.0982 0.08957,0.0207 0.199815,0.0413 0.111965,0.0207 0.186035,0.0379 0.225653,0.0517 0.347954,0.17742 0.1223,0.12747 0.1223,0.33762 z"
         style="fill:#ffffff;fill-opacity:1;stroke-width:0.264583"
         id="path1155" />
      <path
         d="M 14.718624,197.94008 H 13.30097 q 0,0.17742 0.0534,0.31006 0.0534,0.13091 0.146416,0.21531 0.08957,0.0827 0.211873,0.12403 0.124023,0.0413 0.272162,0.0413 0.19637,0 0.394462,-0.0775 0.199816,-0.0792 0.28422,-0.15502 h 0.01723 v 0.35312 q -0.163642,0.0689 -0.334174,0.11541 -0.170532,0.0465 -0.358289,0.0465 -0.478867,0 -0.747584,-0.25839 -0.268717,-0.2601 -0.268717,-0.73724 0,-0.47198 0.256659,-0.74931 0.258382,-0.27733 0.678682,-0.27733 0.389295,0 0.599446,0.22738 0.211873,0.22737 0.211873,0.64595 z m -0.315226,-0.24805 q -0.0017,-0.25493 -0.129191,-0.39446 -0.125745,-0.13953 -0.384127,-0.13953 -0.260104,0 -0.415133,0.15331 -0.153307,0.15331 -0.173977,0.38068 z"
         style="fill:#ffffff;fill-opacity:1;stroke-width:0.264583"
         id="path1157" />
    </g>
    <g
       aria-label="Mean"
       id="text951-2-4-9-7-5-8"
       style="font-size:3.52777px;line-height:1.25;font-family:Sans;-inkscape-font-specification:'Sans, Normal';display:inline;fill:#ffffff;fill-opacity:1;stroke-width:0.264583"
       transform="matrix(0.625,0,0,0.625,1.9231389,103.80428)">
      <path
         d="M 8.3541666,276.65604 H 8.0131029 v -2.21003 l -0.7131332,1.50378 H 7.0967095 l -0.7079656,-1.50378 v 2.21003 H 6.0700733 v -2.56487 h 0.4650868 l 0.68385,1.42799 0.6614569,-1.42799 h 0.4736996 z"
         style="fill:#ffffff;fill-opacity:1;stroke-width:0.264583"
         id="path1225" />
      <path
         d="M 10.63137,275.72759 H 9.2137161 q 0,0.17742 0.053399,0.31005 0.053399,0.13092 0.1464162,0.21532 0.089572,0.0827 0.2118729,0.12402 0.1240232,0.0414 0.272162,0.0414 0.1963698,0 0.3944628,-0.0775 0.199815,-0.0792 0.284219,-0.15503 h 0.01723 v 0.35312 q -0.163642,0.0689 -0.334174,0.11541 -0.170532,0.0465 -0.3582888,0.0465 -0.4788672,0 -0.747584,-0.25838 -0.2687169,-0.2601 -0.2687169,-0.73725 0,-0.47197 0.2566591,-0.7493 0.2583815,-0.27733 0.6786823,-0.27733 0.3892953,0 0.5994453,0.22737 0.211873,0.22738 0.211873,0.64596 z m -0.315226,-0.24805 q -0.0017,-0.25494 -0.129191,-0.39446 -0.125745,-0.13953 -0.3841269,-0.13953 -0.2601041,0 -0.4151331,0.15331 -0.1533064,0.1533 -0.1739769,0.38068 z"
         style="fill:#ffffff;fill-opacity:1;stroke-width:0.264583"
         id="path1227" />
      <path
         d="m 12.617463,276.65604 h -0.322116 v -0.20499 q -0.04306,0.0293 -0.117133,0.0827 -0.07235,0.0517 -0.141248,0.0827 -0.08096,0.0396 -0.186035,0.0654 -0.105075,0.0276 -0.246324,0.0276 -0.260104,0 -0.440971,-0.17226 -0.180867,-0.17225 -0.180867,-0.43925 0,-0.21876 0.09302,-0.35312 0.09474,-0.13608 0.268717,-0.21359 0.175699,-0.0775 0.422023,-0.10508 0.246324,-0.0276 0.528821,-0.0413 v -0.0499 q 0,-0.11025 -0.03962,-0.18259 -0.0379,-0.0724 -0.110243,-0.11369 -0.0689,-0.0396 -0.165364,-0.0534 -0.09646,-0.0138 -0.201538,-0.0138 -0.127468,0 -0.28422,0.0344 -0.156751,0.0327 -0.323838,0.0965 h -0.01722 v -0.329 q 0.09474,-0.0258 0.273884,-0.0568 0.179145,-0.031 0.353122,-0.031 0.20326,0 0.353121,0.0344 0.151584,0.0327 0.261827,0.11368 0.10852,0.0792 0.165364,0.20499 0.05684,0.12574 0.05684,0.31178 z m -0.322116,-0.4737 v -0.53571 q -0.148139,0.009 -0.349676,0.0258 -0.199815,0.0172 -0.316948,0.05 -0.139526,0.0396 -0.225654,0.12402 -0.08613,0.0827 -0.08613,0.2291 0,0.16536 0.09991,0.24977 0.09991,0.0827 0.30489,0.0827 0.170532,0 0.311781,-0.0655 0.141248,-0.0672 0.261826,-0.16019 z"
         style="fill:#ffffff;fill-opacity:1;stroke-width:0.264583"
         id="path1229" />
      <path
         d="m 14.853325,276.65604 h -0.323838 v -1.09554 q 0,-0.13264 -0.0155,-0.24805 -0.0155,-0.11713 -0.05684,-0.18259 -0.04306,-0.0723 -0.124023,-0.1068 -0.08096,-0.0362 -0.210151,-0.0362 -0.132635,0 -0.277329,0.0655 -0.144694,0.0654 -0.27733,0.16708 v 1.43661 h -0.323838 v -1.92409 h 0.323838 v 0.2136 q 0.151584,-0.12575 0.313503,-0.19637 0.161919,-0.0706 0.332451,-0.0706 0.311781,0 0.475422,0.18775 0.163642,0.18776 0.163642,0.54088 z"
         style="fill:#ffffff;fill-opacity:1;stroke-width:0.264583"
         id="path1231" />
    </g>
    <circle
       inkscape:label="time"
       r="4"
       cy="186.49998"
       cx="8.3999996"
       id="path4954-2-3-5-0"
       style="display:inline;opacity:1;vector-effect:none;fill:#808000;fill-opacity:1;fill-rule:evenodd;stroke:none;stroke-width:1;stroke-linecap:butt;stroke-linejoin:miter;stroke-miterlimit:4;stroke-dasharray:none;stroke-dashoffset:0;stroke-opacity:1;paint-order:normal" />
    <circle
       inkscape:label="noise"
       cy="199.49998"
       cx="8.3999996"
       id="path4954-2-39-9-8"
       style="display:inline;opacity:1;vector-effect:none;fill:#0033ff;fill-opacity:1;fill-rule:evenodd;stroke:none;stroke-width:0.499999;stroke-linecap:butt;stroke-linejoin:miter;stroke-miterlimit:4;stroke-dasharray:none;stroke-dashoffset:0;stroke-opacity:1;paint-order:normal"
       r="2" />
    <text
       xml:space="preserve"
       style="font-size:3.52777px;line-height:1.25;font-family:Sans;-inkscape-font-specification:'Sans, Normal';fill:#ffffff;stroke-width:0.264583"
       x="17.423729"
       y="173.16705"
       id="text1266"><tspan
         sodipodi:role="line"
         id="tspan1264"
         x="17.423729"
         y="173.16705"
         style="fill:#ffffff;stroke-width:0.264583" /></text>
    <g
       transform="translate(-3.1750001)"
       aria-label="I-O-U"
       id="text1270"
       style="font-size:3.52777px;line-height:1.25;font-family:Sans;-inkscape-font-specification:'Sans, Normal';fill:#ffffff;stroke-width:0.264583">
      <path
         d="m 17.240642,174.10167 h -1.012856 v -0.26183 h 0.335896 v -2.04121 h -0.335896 v -0.26183 h 1.012856 v 0.26183 h -0.335896 v 2.04121 h 0.335896 z"
         style="fill:#ffffff;stroke-width:0.264583"
         id="path1272" />
      <path
         d="m 18.818492,173.13532 h -1.074867 v -0.31178 h 1.074867 z"
         style="fill:#ffffff;stroke-width:0.264583"
         id="path1274" />
      <path
         d="m 21.342019,171.83136 q 0.156752,0.17225 0.239434,0.42202 0.0844,0.24977 0.0844,0.56672 0,0.31694 -0.08613,0.56844 -0.08441,0.24976 -0.237711,0.41685 -0.158474,0.17398 -0.375515,0.26183 -0.215318,0.0879 -0.492647,0.0879 -0.27044,0 -0.492648,-0.0896 -0.220485,-0.0896 -0.375514,-0.26011 -0.155029,-0.17053 -0.239434,-0.41858 -0.08268,-0.24804 -0.08268,-0.56671 0,-0.31351 0.08268,-0.56155 0.08268,-0.24977 0.241156,-0.42719 0.151584,-0.16881 0.375515,-0.25839 0.225653,-0.0896 0.490925,-0.0896 0.275607,0 0.49437,0.0913 0.220486,0.0896 0.373792,0.25666 z m -0.03101,0.98874 q 0,-0.49954 -0.22393,-0.76998 -0.223931,-0.27216 -0.611504,-0.27216 -0.391017,0 -0.614948,0.27216 -0.222208,0.27044 -0.222208,0.76998 0,0.5047 0.227376,0.77342 0.227376,0.26699 0.60978,0.26699 0.382405,0 0.608058,-0.26699 0.227376,-0.26872 0.227376,-0.77342 z"
         style="fill:#ffffff;stroke-width:0.264583"
         id="path1276" />
      <path
         d="m 23.200644,173.13532 h -1.074867 v -0.31178 h 1.074867 z"
         style="fill:#ffffff;stroke-width:0.264583"
         id="path1278" />
      <path
         d="m 25.743119,173.07159 q 0,0.27905 -0.06201,0.48748 -0.06029,0.2067 -0.199815,0.34451 -0.132636,0.13091 -0.310058,0.1912 -0.177422,0.0603 -0.413411,0.0603 -0.241156,0 -0.4203,-0.0637 -0.179145,-0.0637 -0.301445,-0.18775 -0.139527,-0.14125 -0.201538,-0.34107 -0.06029,-0.19981 -0.06029,-0.49092 v -1.53479 h 0.341064 v 1.55201 q 0,0.20843 0.02756,0.32901 0.02928,0.12058 0.09646,0.21876 0.07579,0.11197 0.204982,0.16881 0.130914,0.0569 0.313503,0.0569 0.184313,0 0.313503,-0.0551 0.129191,-0.0568 0.206706,-0.17053 0.06718,-0.0982 0.09474,-0.22393 0.02928,-0.12747 0.02928,-0.31522 v -1.56063 h 0.341064 z"
         style="fill:#ffffff;stroke-width:0.264583"
         id="path1280" />
    </g>
  </g>
</svg>
