<?xml version="1.0" encoding="UTF-8" standalone="no"?>
<svg
   xmlns:dc="http://purl.org/dc/elements/1.1/"
   xmlns:cc="http://creativecommons.org/ns#"
   xmlns:rdf="http://www.w3.org/1999/02/22-rdf-syntax-ns#"
   xmlns:svg="http://www.w3.org/2000/svg"
   xmlns="http://www.w3.org/2000/svg"
   xmlns:sodipodi="http://sodipodi.sourceforge.net/DTD/sodipodi-0.dtd"
   xmlns:inkscape="http://www.inkscape.org/namespaces/inkscape"
   width="20.32mm"
   height="128.5mm"
   viewBox="0 0 20.320001 128.50002"
   version="1.1"
   id="svg8"
   inkscape:version="1.0 (4035a4f, 2020-05-01)"
   sodipodi:docname="OrnsteinUhlenbeckPlate.svg">
  <defs
     id="defs2" />
  <sodipodi:namedview
     id="base"
     pagecolor="#ffffff"
     bordercolor="#666666"
     borderopacity="1.0"
     inkscape:pageopacity="0.0"
     inkscape:pageshadow="2"
     inkscape:zoom="1.4"
     inkscape:cx="18.523003"
     inkscape:cy="239.07055"
     inkscape:document-units="mm"
     inkscape:current-layer="layer1"
     showgrid="false"
     units="mm"
     inkscape:snap-bbox="true"
     inkscape:snap-page="true"
     inkscape:bbox-nodes="false"
     inkscape:snap-bbox-edge-midpoints="false"
     inkscape:window-width="1313"
     inkscape:window-height="1034"
     inkscape:window-x="0"
     inkscape:window-y="23"
     inkscape:window-maximized="0"
     inkscape:snap-bbox-midpoints="true"
     inkscape:snap-nodes="false"
     inkscape:document-rotation="0" />
  <metadata
     id="metadata5">
    <rdf:RDF>
      <cc:Work
         rdf:about="">
        <dc:format>image/svg+xml</dc:format>
        <dc:type
           rdf:resource="http://purl.org/dc/dcmitype/StillImage" />
        <dc:title />
      </cc:Work>
    </rdf:RDF>
  </metadata>
  <g
     inkscape:label="Layer 1"
     inkscape:groupmode="layer"
     id="layer1"
     transform="translate(0,-168.49998)"
     style="display:inline">
    <rect
       style="display:inline;opacity:1;vector-effect:none;fill:#107b38;fill-opacity:1;fill-rule:evenodd;stroke:none;stroke-width:0.530199;stroke-linecap:butt;stroke-linejoin:miter;stroke-miterlimit:4;stroke-dasharray:none;stroke-dashoffset:0;stroke-opacity:1;paint-order:normal"
       id="rect420"
       width="20.32"
       height="128.5"
       x="-0.0053724367"
       y="168.63361" />
    <rect
       style="fill:#000000;fill-opacity:1;stroke-width:0.252659"
       id="rect75"
       width="12"
       height="16"
       x="4.1599998"
       y="277.26245"
       ry="0" />
    <text
       xml:space="preserve"
       style="font-style:normal;font-weight:normal;font-size:10.5833px;line-height:1.25;font-family:sans-serif;fill:#000000;fill-opacity:1;stroke:none;stroke-width:0.264583"
       x="7.2162771"
       y="173.92349"
       id="text50"><tspan
         sodipodi:role="line"
         id="tspan48"
         x="7.2162771"
         y="173.92349"
         style="stroke-width:0.264583" /></text>
    <text
       xml:space="preserve"
       style="font-style:normal;font-weight:normal;font-size:10.5833px;line-height:1.25;font-family:sans-serif;fill:#000000;fill-opacity:1;stroke:none;stroke-width:0.264583"
       x="5.6126599"
       y="177.93254"
       id="text54"><tspan
         sodipodi:role="line"
         id="tspan52"
         x="5.6126599"
         y="177.93254"
         style="stroke-width:0.264583" /></text>
    <g
       transform="translate(-4.9875612,18.817768)"
       aria-label="Trig"
       id="text137"
       style="font-size:4.23333px;line-height:1.25;font-family:Sans;-inkscape-font-specification:'Sans, Normal';stroke-width:0.264583">
      <path
         d="m 13.833943,252.64854 h -1.099674 v 2.71404 h -0.409277 v -2.71404 h -1.099673 v -0.36381 h 2.608624 z"
         style="stroke-width:0.264583"
         id="path139" />
      <path
         d="m 15.66122,253.47742 h -0.02067 q -0.08682,-0.0207 -0.169499,-0.0289 -0.08061,-0.0103 -0.192236,-0.0103 -0.179834,0 -0.347266,0.0806 -0.167431,0.0785 -0.32246,0.20463 v 1.63918 h -0.388607 v -2.3089 h 0.388607 v 0.34106 q 0.23151,-0.18603 0.40721,-0.26251 0.177767,-0.0785 0.361734,-0.0785 0.101286,0 0.146761,0.006 0.04548,0.004 0.136426,0.0186 z"
         style="stroke-width:0.264583"
         id="path141" />
      <path
         d="m 16.448769,252.66714 h -0.438216 v -0.40308 h 0.438216 z m -0.0248,2.69544 h -0.388607 v -2.3089 h 0.388607 z"
         style="stroke-width:0.264583"
         id="path143" />
      <path
         d="m 19.069795,255.10006 q 0,0.58705 -0.26665,0.86197 -0.266651,0.27491 -0.820621,0.27491 -0.183968,0 -0.359668,-0.0269 -0.173633,-0.0248 -0.343131,-0.0723 v -0.39688 h 0.02067 q 0.09508,0.0372 0.30179,0.0909 0.206706,0.0558 0.413411,0.0558 0.198438,0 0.328662,-0.0475 0.130225,-0.0475 0.202572,-0.13229 0.07235,-0.0806 0.103353,-0.19431 0.03101,-0.11368 0.03101,-0.25424 v -0.21084 q -0.175699,0.14056 -0.33693,0.21084 -0.159163,0.0682 -0.40721,0.0682 -0.413411,0 -0.657323,-0.29766 -0.241846,-0.29972 -0.241846,-0.84336 0,-0.29765 0.08268,-0.51263 0.08475,-0.21704 0.229444,-0.37413 0.134358,-0.14676 0.326594,-0.22738 0.192237,-0.0827 0.382406,-0.0827 0.200504,0 0.334863,0.0413 0.136425,0.0393 0.28732,0.12196 l 0.02481,-0.0992 h 0.363802 z m -0.388607,-0.37207 v -1.25883 q -0.155029,-0.0703 -0.289387,-0.0992 -0.132292,-0.031 -0.264584,-0.031 -0.320393,0 -0.504361,0.21498 -0.183968,0.21497 -0.183968,0.62425 0,0.3886 0.136426,0.58911 0.136425,0.2005 0.452685,0.2005 0.169498,0 0.338997,-0.0641 0.171566,-0.0661 0.314192,-0.1757 z"
         style="stroke-width:0.264583"
         id="path145" />
    </g>
    <circle
       inkscape:label="noise"
       cy="203.29997"
       cx="10.16"
       id="path4954-2"
       style="display:inline;opacity:1;vector-effect:none;fill:#0033ff;fill-opacity:1;fill-rule:evenodd;stroke:none;stroke-width:0.5;stroke-linecap:butt;stroke-linejoin:miter;stroke-miterlimit:4;stroke-dasharray:none;stroke-dashoffset:0;stroke-opacity:1;paint-order:normal"
       r="2" />
    <circle
       style="display:inline;opacity:1;vector-effect:none;fill:#808000;fill-opacity:1;fill-rule:evenodd;stroke:none;stroke-width:1;stroke-linecap:butt;stroke-linejoin:miter;stroke-miterlimit:4;stroke-dasharray:none;stroke-dashoffset:0;stroke-opacity:1;paint-order:normal"
       id="path4954-2-3"
       cx="10.16"
       cy="240.32909"
       r="4"
       inkscape:label="time" />
    <g
       aria-label="Out"
       id="text2493"
       style="font-size:4.23333px;line-height:1.25;font-family:Sans;-inkscape-font-specification:'Sans, Normal';fill:#ffffff;stroke-width:0.264583"
       transform="translate(-13.053848,5.1031005)">
      <path
         d="m 21.68398,284.57692 q 0.188102,0.20671 0.287321,0.50643 0.101285,0.29972 0.101285,0.68006 0,0.38034 -0.103352,0.68213 -0.101286,0.29972 -0.285254,0.50023 -0.190169,0.20877 -0.450618,0.31419 -0.258382,0.10542 -0.591178,0.10542 -0.324528,0 -0.591178,-0.10749 -0.264583,-0.10749 -0.450618,-0.31212 -0.186035,-0.20464 -0.287321,-0.5023 -0.09922,-0.29765 -0.09922,-0.68006 0,-0.3762 0.09922,-0.67386 0.09922,-0.29972 0.289388,-0.51263 0.181901,-0.20257 0.450618,-0.31006 0.270784,-0.10748 0.589111,-0.10748 0.330729,0 0.593245,0.10955 0.264583,0.10749 0.448551,0.30799 z m -0.03721,1.18649 q 0,-0.59945 -0.268717,-0.92397 -0.268718,-0.3266 -0.733805,-0.3266 -0.469222,0 -0.737939,0.3266 -0.26665,0.32452 -0.26665,0.92397 0,0.60565 0.272851,0.92811 0.272852,0.32039 0.731738,0.32039 0.458886,0 0.729671,-0.32039 0.272851,-0.32246 0.272851,-0.92811 z"
         style="fill:#ffffff;stroke-width:0.264583"
         id="path2495" />
      <path
         d="m 24.604729,287.3013 h -0.388606 v -0.25631 q -0.19637,0.15502 -0.376204,0.23771 -0.179834,0.0827 -0.396875,0.0827 -0.363802,0 -0.566373,-0.22118 -0.202572,-0.22324 -0.202572,-0.65319 v -1.49861 h 0.388607 v 1.31465 q 0,0.1757 0.01654,0.30179 0.01654,0.12402 0.07028,0.2129 0.05581,0.091 0.144694,0.13229 0.08888,0.0414 0.258382,0.0414 0.150895,0 0.328662,-0.0786 0.179834,-0.0786 0.334863,-0.20051 v -1.72392 h 0.388606 z"
         style="fill:#ffffff;stroke-width:0.264583"
         id="path2497" />
      <path
         d="m 26.568432,287.28063 q -0.109554,0.0289 -0.239778,0.0475 -0.128157,0.0186 -0.229443,0.0186 -0.353467,0 -0.537435,-0.19017 -0.183968,-0.19017 -0.183968,-0.60979 v -1.22783 h -0.262516 v -0.32659 h 0.262516 v -0.66353 h 0.388607 v 0.66353 h 0.802017 v 0.32659 h -0.802017 v 1.05214 q 0,0.1819 0.0083,0.28525 0.0083,0.10128 0.05788,0.19017 0.04548,0.0827 0.124023,0.12195 0.08062,0.0372 0.243913,0.0372 0.09508,0 0.198437,-0.0269 0.103353,-0.0289 0.148828,-0.0475 h 0.02067 z"
         style="fill:#ffffff;stroke-width:0.264583"
         id="path2499" />
    </g>
    <circle
       style="display:inline;opacity:1;vector-effect:none;fill:#00ffff;fill-opacity:1;fill-rule:evenodd;stroke:none;stroke-width:1;stroke-linecap:butt;stroke-linejoin:miter;stroke-miterlimit:4;stroke-dasharray:none;stroke-dashoffset:0;stroke-opacity:1;paint-order:normal"
       id="path4954-2-5"
       cx="10.16"
       cy="190.69577"
       r="4"
       inkscape:label="noise" />
    <circle
       r="2"
       cy="264.79999"
       cx="10.16"
       id="circle4956"
       style="display:inline;opacity:1;vector-effect:none;fill:#0033ff;fill-opacity:1;fill-rule:evenodd;stroke:none;stroke-width:0.5;stroke-linecap:butt;stroke-linejoin:miter;stroke-miterlimit:4;stroke-dasharray:none;stroke-dashoffset:0;stroke-opacity:1;paint-order:normal"
       inkscape:label="trig" />
    <circle
       r="2"
       style="display:inline;opacity:1;vector-effect:none;fill:#0033ff;fill-opacity:1;fill-rule:evenodd;stroke:none;stroke-width:0.499999;stroke-linecap:butt;stroke-linejoin:miter;stroke-miterlimit:4;stroke-dasharray:none;stroke-dashoffset:0;stroke-opacity:1;paint-order:normal"
       id="path4954-2-39"
       cx="10.16"
       cy="252.89998"
       inkscape:label="noise" />
    <circle
       inkscape:label="trig"
       style="display:inline;opacity:1;vector-effect:none;fill:#00ff00;fill-opacity:1;fill-rule:evenodd;stroke:none;stroke-width:1;stroke-linecap:butt;stroke-linejoin:miter;stroke-miterlimit:4;stroke-dasharray:none;stroke-dashoffset:0;stroke-opacity:1;paint-order:normal"
       id="circle4956-4"
       cx="10.160003"
       cy="282.26245"
       r="4" />
    <path
       id="path1000"
       d="m 8.8145136,170.52216 0.755952,4.58296 2.0788694,-1.88988 -3.4962791,-1.6064 2.8820681,3.68527 0.236235,-5.10268 -2.5513394,4.63021 3.3072914,-2.88207 z"
       style="fill:#ffff00;stroke:#000000;stroke-width:0.264583px;stroke-linecap:butt;stroke-linejoin:miter;stroke-opacity:1" />
    <g
       aria-label=" Ornstein Uhlenbeck"
       id="text905"
       style="font-size:4.23333px;line-height:1.25;font-family:Sans;-inkscape-font-specification:'Sans, Normal';stroke-width:0.264583">
      <path
         d="m 4.923796,176.77512 q 0.1567519,0.17226 0.2394342,0.42203 0.084405,0.24977 0.084405,0.56671 0,0.31695 -0.086127,0.56845 -0.084405,0.24977 -0.2377117,0.41685 -0.1584745,0.17398 -0.3755157,0.26183 -0.2153186,0.0879 -0.492649,0.0879 -0.2704401,0 -0.4926489,-0.0896 -0.2204863,-0.0896 -0.3755157,-0.26011 -0.1550294,-0.17053 -0.2394343,-0.41858 -0.082682,-0.24804 -0.082682,-0.56672 0,-0.3135 0.082682,-0.56155 0.082682,-0.24977 0.2411569,-0.42719 0.1515843,-0.16881 0.3755156,-0.25838 0.2256539,-0.0896 0.4909264,-0.0896 0.2756078,0 0.4943716,0.0913 0.2204862,0.0896 0.3737926,0.25666 z m -0.031006,0.98874 q 0,-0.49953 -0.2239314,-0.76998 -0.2239313,-0.27216 -0.6115048,-0.27216 -0.3910186,0 -0.61495,0.27216 -0.2222088,0.27045 -0.2222088,0.76998 0,0.50471 0.2273765,0.77343 0.2273764,0.26699 0.6097823,0.26699 0.3824058,0 0.6080597,-0.26699 0.2273765,-0.26872 0.2273765,-0.77343 z"
         style="font-style:normal;font-variant:normal;font-weight:normal;font-stretch:normal;font-size:3.52778px;font-family:Sans;-inkscape-font-specification:'Sans, Normal';font-variant-ligatures:normal;font-variant-caps:normal;font-variant-numeric:normal;font-variant-east-asian:normal;stroke-width:0.264583"
         id="path2700" />
      <path
         d="m 6.9632938,177.47448 h -0.017225 q -0.072347,-0.0172 -0.141249,-0.0241 -0.067179,-0.009 -0.160197,-0.009 -0.1498618,0 -0.2893882,0.0672 -0.1395265,0.0654 -0.2687176,0.17053 v 1.36598 H 5.7626773 V 177.121 h 0.3238392 v 0.28422 q 0.1929254,-0.15503 0.3393421,-0.21876 0.1481392,-0.0655 0.301446,-0.0655 0.084405,0 0.122301,0.005 0.037896,0.003 0.1136882,0.0155 z"
         style="font-style:normal;font-variant:normal;font-weight:normal;font-stretch:normal;font-size:3.52778px;font-family:Sans;-inkscape-font-specification:'Sans, Normal';font-variant-ligatures:normal;font-variant-caps:normal;font-variant-numeric:normal;font-variant-east-asian:normal;stroke-width:0.264583"
         id="path2702" />
      <path
         d="M 8.8804905,179.04544 H 8.5566513 v -1.09554 q 0,-0.13264 -0.015503,-0.24805 -0.015503,-0.11713 -0.056844,-0.18259 -0.043064,-0.0723 -0.1240235,-0.1068 -0.08096,-0.0362 -0.210151,-0.0362 -0.1326363,0 -0.2773304,0.0655 -0.1446941,0.0654 -0.2773303,0.16708 v 1.43661 H 7.2716299 v -1.92409 h 0.3238392 v 0.2136 q 0.1515843,-0.12575 0.3135039,-0.19637 0.1619196,-0.0706 0.3324519,-0.0706 0.3117813,0 0.4754235,0.18776 0.1636421,0.18776 0.1636421,0.54088 z"
         style="font-style:normal;font-variant:normal;font-weight:normal;font-stretch:normal;font-size:3.52778px;font-family:Sans;-inkscape-font-specification:'Sans, Normal';font-variant-ligatures:normal;font-variant-caps:normal;font-variant-numeric:normal;font-variant-east-asian:normal;stroke-width:0.264583"
         id="path2704" />
      <path
         d="m 10.878647,178.49078 q 0,0.26355 -0.218764,0.43236 -0.217041,0.16881 -0.594279,0.16881 -0.2135959,0 -0.392741,-0.0499 -0.1774226,-0.0517 -0.298001,-0.11197 v -0.36346 h 0.017226 q 0.1533069,0.11541 0.3410647,0.18431 0.1877578,0.0672 0.3600133,0.0672 0.213596,0 0.334174,-0.0689 0.120579,-0.0689 0.120579,-0.21704 0,-0.11369 -0.06546,-0.17225 -0.06546,-0.0586 -0.251492,-0.0999 -0.0689,-0.0155 -0.180868,-0.0362 -0.1102435,-0.0207 -0.2015385,-0.0448 -0.2532147,-0.0672 -0.3600128,-0.19637 -0.1050754,-0.13092 -0.1050754,-0.3204 0,-0.11885 0.048231,-0.22393 0.049954,-0.10507 0.1498618,-0.18776 0.096463,-0.081 0.2446019,-0.12746 0.1498618,-0.0482 0.334174,-0.0482 0.172255,0 0.347955,0.0431 0.177423,0.0413 0.294556,0.10163 v 0.34623 h -0.01722 q -0.124024,-0.0913 -0.301447,-0.15331 -0.177422,-0.0637 -0.347954,-0.0637 -0.1774227,0 -0.2997237,0.0689 -0.122301,0.0672 -0.122301,0.20154 0,0.11886 0.07407,0.17915 0.072347,0.0603 0.2342667,0.0982 0.08957,0.0207 0.199816,0.0413 0.111966,0.0207 0.186035,0.0379 0.225654,0.0517 0.347955,0.17742 0.122301,0.12747 0.122301,0.33762 z"
         style="font-style:normal;font-variant:normal;font-weight:normal;font-stretch:normal;font-size:3.52778px;font-family:Sans;-inkscape-font-specification:'Sans, Normal';font-variant-ligatures:normal;font-variant-caps:normal;font-variant-numeric:normal;font-variant-east-asian:normal;stroke-width:0.264583"
         id="path2706" />
      <path
         d="m 12.342814,179.02822 q -0.0913,0.0241 -0.199816,0.0396 -0.106798,0.0155 -0.191202,0.0155 -0.294556,0 -0.447863,-0.15848 -0.153307,-0.15847 -0.153307,-0.50815 v -1.02319 h -0.218764 v -0.27217 h 0.218764 v -0.55293 h 0.323839 v 0.55293 h 0.668349 v 0.27217 h -0.668349 v 0.87677 q 0,0.15159 0.0069,0.23772 0.0069,0.0844 0.04823,0.15847 0.0379,0.0689 0.103353,0.10163 0.06718,0.031 0.20326,0.031 0.07924,0 0.165365,-0.0224 0.08613,-0.0241 0.124024,-0.0396 h 0.01722 z"
         style="font-style:normal;font-variant:normal;font-weight:normal;font-stretch:normal;font-size:3.52778px;font-family:Sans;-inkscape-font-specification:'Sans, Normal';font-variant-ligatures:normal;font-variant-caps:normal;font-variant-numeric:normal;font-variant-east-asian:normal;stroke-width:0.264583"
         id="path2708" />
      <path
         d="M 14.346138,178.11699 H 12.92848 q 0,0.17742 0.0534,0.31006 0.0534,0.13091 0.146417,0.21531 0.08957,0.0827 0.211873,0.12403 0.124024,0.0413 0.272163,0.0413 0.196371,0 0.394464,-0.0775 0.199815,-0.0792 0.28422,-0.15503 h 0.01723 v 0.35313 q -0.163642,0.0689 -0.334175,0.11541 -0.170532,0.0465 -0.35829,0.0465 -0.478868,0 -0.747586,-0.25839 -0.268718,-0.2601 -0.268718,-0.73725 0,-0.47197 0.25666,-0.74931 0.258383,-0.27733 0.678684,-0.27733 0.389296,0 0.599447,0.22738 0.211874,0.22738 0.211874,0.64596 z m -0.315226,-0.24805 q -0.0017,-0.25494 -0.129192,-0.39446 -0.125746,-0.13953 -0.384128,-0.13953 -0.260105,0 -0.415134,0.15331 -0.153307,0.1533 -0.173978,0.38068 z"
         style="font-style:normal;font-variant:normal;font-weight:normal;font-stretch:normal;font-size:3.52778px;font-family:Sans;-inkscape-font-specification:'Sans, Normal';font-variant-ligatures:normal;font-variant-caps:normal;font-variant-numeric:normal;font-variant-east-asian:normal;stroke-width:0.264583"
         id="path2710" />
      <path
         d="m 15.18502,176.79924 h -0.365181 v -0.3359 h 0.365181 z m -0.02067,2.2462 h -0.32384 v -1.92409 h 0.323839 z"
         style="font-style:normal;font-variant:normal;font-weight:normal;font-stretch:normal;font-size:3.52778px;font-family:Sans;-inkscape-font-specification:'Sans, Normal';font-variant-ligatures:normal;font-variant-caps:normal;font-variant-numeric:normal;font-variant-east-asian:normal;stroke-width:0.264583"
         id="path2712" />
      <path
         d="m 17.417443,179.04544 h -0.323839 v -1.09554 q 0,-0.13264 -0.0155,-0.24805 -0.0155,-0.11713 -0.05684,-0.18259 -0.04306,-0.0723 -0.124024,-0.1068 -0.08096,-0.0362 -0.210151,-0.0362 -0.132636,0 -0.27733,0.0655 -0.144694,0.0654 -0.27733,0.16708 v 1.43661 h -0.32384 v -1.92409 h 0.32384 v 0.2136 q 0.151584,-0.12575 0.313503,-0.19637 0.16192,-0.0706 0.332452,-0.0706 0.311782,0 0.475424,0.18776 0.163642,0.18776 0.163642,0.54088 z"
         style="font-style:normal;font-variant:normal;font-weight:normal;font-stretch:normal;font-size:3.52778px;font-family:Sans;-inkscape-font-specification:'Sans, Normal';font-variant-ligatures:normal;font-variant-caps:normal;font-variant-numeric:normal;font-variant-east-asian:normal;stroke-width:0.264583"
         id="path2714" />
      <path
         d="m 3.7025088,183.30702 q 0,0.27905 -0.062012,0.48748 -0.060289,0.20671 -0.1998156,0.34451 -0.1326363,0.13091 -0.3100588,0.1912 -0.1774226,0.0603 -0.4134118,0.0603 -0.2411568,0 -0.4203019,-0.0637 -0.1791451,-0.0637 -0.301446,-0.18776 -0.1395265,-0.14125 -0.2015383,-0.34106 -0.060289,-0.19982 -0.060289,-0.49093 v -1.53479 h 0.3410647 v 1.55201 q 0,0.20843 0.027561,0.32901 0.029283,0.12058 0.096463,0.21876 0.075792,0.11197 0.2049833,0.16881 0.1309138,0.0568 0.3135039,0.0568 0.1843128,0 0.3135039,-0.0551 0.1291912,-0.0568 0.2067059,-0.17054 0.067179,-0.0982 0.09474,-0.22393 0.029283,-0.12747 0.029283,-0.31522 v -1.56063 h 0.3410647 z"
         style="font-style:normal;font-variant:normal;font-weight:normal;font-stretch:normal;font-size:3.52778px;font-family:Sans;-inkscape-font-specification:'Sans, Normal';font-variant-ligatures:normal;font-variant-caps:normal;font-variant-numeric:normal;font-variant-east-asian:normal;stroke-width:0.264583"
         id="path2716" />
      <path
         d="M 5.9383771,184.3371 H 5.6145379 v -1.09554 q 0,-0.13263 -0.015503,-0.24805 -0.015503,-0.11713 -0.056844,-0.18259 -0.043064,-0.0723 -0.1240235,-0.10679 -0.08096,-0.0362 -0.210151,-0.0362 -0.1326363,0 -0.2773304,0.0655 -0.1446941,0.0655 -0.2773303,0.16709 v 1.4366 H 4.3295165 v -2.68028 h 0.3238392 v 0.96979 q 0.1515843,-0.12574 0.3135039,-0.19637 0.1619196,-0.0706 0.3324519,-0.0706 0.3117813,0 0.4754235,0.18775 0.1636421,0.18776 0.1636421,0.54088 z"
         style="font-style:normal;font-variant:normal;font-weight:normal;font-stretch:normal;font-size:3.52778px;font-family:Sans;-inkscape-font-specification:'Sans, Normal';font-variant-ligatures:normal;font-variant-caps:normal;font-variant-numeric:normal;font-variant-east-asian:normal;stroke-width:0.264583"
         id="path2718" />
      <path
         d="M 6.8892241,184.3371 H 6.5653849 v -2.68028 h 0.3238392 z"
         style="font-style:normal;font-variant:normal;font-weight:normal;font-stretch:normal;font-size:3.52778px;font-family:Sans;-inkscape-font-specification:'Sans, Normal';font-variant-ligatures:normal;font-variant-caps:normal;font-variant-numeric:normal;font-variant-east-asian:normal;stroke-width:0.264583"
         id="path2720" />
      <path
         d="M 9.1440405,183.40865 H 7.7263828 q 0,0.17742 0.053399,0.31006 0.053399,0.13091 0.1464167,0.21532 0.089573,0.0827 0.2118735,0.12402 0.1240235,0.0413 0.2721627,0.0413 0.1963706,0 0.3944637,-0.0775 0.1998157,-0.0792 0.2842206,-0.15503 h 0.017225 v 0.35312 q -0.1636422,0.0689 -0.3341745,0.11541 -0.1705324,0.0465 -0.3582902,0.0465 -0.4788686,0 -0.7475862,-0.25838 -0.2687176,-0.26011 -0.2687176,-0.73725 0,-0.47198 0.2566598,-0.74931 0.2583823,-0.27733 0.6786842,-0.27733 0.3892961,0 0.599447,0.22737 0.2118735,0.22738 0.2118735,0.64596 z M 8.8288141,183.1606 q -0.00172,-0.25494 -0.1291912,-0.39446 -0.125746,-0.13953 -0.3841284,-0.13953 -0.2601048,0 -0.4151342,0.15331 -0.1533069,0.15331 -0.1739775,0.38068 z"
         style="font-style:normal;font-variant:normal;font-weight:normal;font-stretch:normal;font-size:3.52778px;font-family:Sans;-inkscape-font-specification:'Sans, Normal';font-variant-ligatures:normal;font-variant-caps:normal;font-variant-numeric:normal;font-variant-east-asian:normal;stroke-width:0.264583"
         id="path2722" />
      <path
         d="m 11.243828,184.3371 h -0.32384 v -1.09554 q 0,-0.13263 -0.0155,-0.24805 -0.0155,-0.11713 -0.05684,-0.18259 -0.04306,-0.0723 -0.124023,-0.10679 -0.08096,-0.0362 -0.210151,-0.0362 -0.132636,0 -0.277331,0.0655 -0.144694,0.0655 -0.2773299,0.16709 v 1.4366 H 9.6349669 v -1.92408 h 0.3238392 v 0.21359 q 0.1515839,-0.12574 0.3135039,-0.19637 0.16192,-0.0706 0.332452,-0.0706 0.311781,0 0.475423,0.18775 0.163643,0.18776 0.163643,0.54088 z"
         style="font-style:normal;font-variant:normal;font-weight:normal;font-stretch:normal;font-size:3.52778px;font-family:Sans;-inkscape-font-specification:'Sans, Normal';font-variant-ligatures:normal;font-variant-caps:normal;font-variant-numeric:normal;font-variant-east-asian:normal;stroke-width:0.264583"
         id="path2724" />
      <path
         d="m 13.560655,183.36042 q 0,0.24115 -0.0689,0.43408 -0.06718,0.19293 -0.18259,0.32384 -0.122301,0.13608 -0.268717,0.20498 -0.146417,0.0672 -0.322117,0.0672 -0.163642,0 -0.285943,-0.0396 -0.122301,-0.0379 -0.241157,-0.10335 l -0.02067,0.0896 H 11.86739 v -2.68028 h 0.323839 v 0.95773 q 0.136081,-0.11196 0.289388,-0.18259 0.153307,-0.0723 0.34451,-0.0723 0.341065,0 0.537435,0.26182 0.198093,0.26183 0.198093,0.73898 z m -0.334174,0.009 q 0,-0.34451 -0.113688,-0.52193 -0.113689,-0.17915 -0.366903,-0.17915 -0.141249,0 -0.285943,0.062 -0.144695,0.0603 -0.268718,0.15676 v 1.10243 q 0.137804,0.062 0.235989,0.0861 0.09991,0.0241 0.225654,0.0241 0.268718,0 0.420302,-0.1757 0.153307,-0.17742 0.153307,-0.55466 z"
         style="font-style:normal;font-variant:normal;font-weight:normal;font-stretch:normal;font-size:3.52778px;font-family:Sans;-inkscape-font-specification:'Sans, Normal';font-variant-ligatures:normal;font-variant-caps:normal;font-variant-numeric:normal;font-variant-east-asian:normal;stroke-width:0.264583"
         id="path2726" />
      <path
         d="m 15.675946,183.40865 h -1.417658 q 0,0.17742 0.0534,0.31006 0.0534,0.13091 0.146417,0.21532 0.08957,0.0827 0.211874,0.12402 0.124023,0.0413 0.272162,0.0413 0.196371,0 0.394464,-0.0775 0.199816,-0.0792 0.284221,-0.15503 h 0.01722 v 0.35312 q -0.163642,0.0689 -0.334174,0.11541 -0.170533,0.0465 -0.358291,0.0465 -0.478868,0 -0.747586,-0.25838 -0.268717,-0.26011 -0.268717,-0.73725 0,-0.47198 0.256659,-0.74931 0.258383,-0.27733 0.678685,-0.27733 0.389296,0 0.599447,0.22737 0.211873,0.22738 0.211873,0.64596 z M 15.36072,183.1606 q -0.0017,-0.25494 -0.129191,-0.39446 -0.125746,-0.13953 -0.384129,-0.13953 -0.260105,0 -0.415134,0.15331 -0.153307,0.15331 -0.173978,0.38068 z"
         style="font-style:normal;font-variant:normal;font-weight:normal;font-stretch:normal;font-size:3.52778px;font-family:Sans;-inkscape-font-specification:'Sans, Normal';font-variant-ligatures:normal;font-variant-caps:normal;font-variant-numeric:normal;font-variant-east-asian:normal;stroke-width:0.264583"
         id="path2728" />
      <path
         d="m 17.589697,184.21652 q -0.161919,0.0775 -0.308336,0.12058 -0.144694,0.0431 -0.308336,0.0431 -0.208428,0 -0.382406,-0.0603 -0.173977,-0.062 -0.298001,-0.18604 -0.125746,-0.12402 -0.194648,-0.3135 -0.0689,-0.18948 -0.0689,-0.4427 0,-0.47198 0.258383,-0.74069 0.260104,-0.26872 0.685574,-0.26872 0.165365,0 0.323839,0.0465 0.160197,0.0465 0.292833,0.11369 v 0.36001 h -0.01722 q -0.148139,-0.11541 -0.306614,-0.17742 -0.156752,-0.062 -0.306613,-0.062 -0.275608,0 -0.435805,0.18603 -0.158475,0.18431 -0.158475,0.5426 0,0.34796 0.15503,0.53572 0.156752,0.18603 0.43925,0.18603 0.09819,0 0.199815,-0.0258 0.101631,-0.0258 0.18259,-0.0672 0.07062,-0.0362 0.132637,-0.0758 0.06201,-0.0413 0.09819,-0.0706 h 0.01722 z"
         style="font-style:normal;font-variant:normal;font-weight:normal;font-stretch:normal;font-size:3.52778px;font-family:Sans;-inkscape-font-specification:'Sans, Normal';font-variant-ligatures:normal;font-variant-caps:normal;font-variant-numeric:normal;font-variant-east-asian:normal;stroke-width:0.264583"
         id="path2730" />
      <path
         d="m 19.753218,184.3371 h -0.427192 l -0.771702,-0.84232 -0.210151,0.19981 v 0.64251 h -0.323839 v -2.68028 h 0.323839 v 1.7191 l 0.935344,-0.9629 h 0.408244 l -0.894002,0.88883 z"
         style="font-style:normal;font-variant:normal;font-weight:normal;font-stretch:normal;font-size:3.52778px;font-family:Sans;-inkscape-font-specification:'Sans, Normal';font-variant-ligatures:normal;font-variant-caps:normal;font-variant-numeric:normal;font-variant-east-asian:normal;stroke-width:0.264583"
         id="path2732" />
    </g>
    <circle
       inkscape:label="time"
       r="4"
       cy="214.88698"
       cx="10.16"
       id="path4954-2-3-5"
       style="display:inline;opacity:1;vector-effect:none;fill:#808000;fill-opacity:1;fill-rule:evenodd;stroke:none;stroke-width:1;stroke-linecap:butt;stroke-linejoin:miter;stroke-miterlimit:4;stroke-dasharray:none;stroke-dashoffset:0;stroke-opacity:1;paint-order:normal" />
    <circle
       inkscape:label="noise"
       cy="227.49998"
       cx="10.16"
       id="path4954-2-39-9"
       style="display:inline;opacity:1;vector-effect:none;fill:#0033ff;fill-opacity:1;fill-rule:evenodd;stroke:none;stroke-width:0.499999;stroke-linecap:butt;stroke-linejoin:miter;stroke-miterlimit:4;stroke-dasharray:none;stroke-dashoffset:0;stroke-opacity:1;paint-order:normal"
       r="2" />
    <g
       aria-label="Spring"
       id="text2779"
       style="font-style:normal;font-variant:normal;font-weight:normal;font-stretch:normal;font-size:3.52778px;line-height:1.25;font-family:Sans;-inkscape-font-specification:'Sans, Normal';font-variant-ligatures:normal;font-variant-caps:normal;font-variant-numeric:normal;font-variant-east-asian:normal;stroke-width:0.264583">
      <path
         d="m 6.7818192,221.51609 q 0,0.14986 -0.070625,0.29627 -0.068902,0.14642 -0.194648,0.24805 -0.1378039,0.11024 -0.3221166,0.17226 -0.1825902,0.062 -0.4409725,0.062 -0.2773304,0 -0.4995392,-0.0517 -0.2204863,-0.0517 -0.4495853,-0.15331 v -0.42719 h 0.024116 q 0.1946481,0.16192 0.4495853,0.24977 0.2549372,0.0879 0.4788686,0.0879 0.316949,0 0.4926489,-0.11885 0.1774226,-0.11886 0.1774226,-0.31695 0,-0.17054 -0.084405,-0.2515 -0.082682,-0.081 -0.2532147,-0.12574 -0.1291912,-0.0345 -0.2807755,-0.0568 -0.1498617,-0.0224 -0.3186715,-0.0568 -0.3410647,-0.0724 -0.5064294,-0.24632 -0.1636421,-0.1757 -0.1636421,-0.45648 0,-0.32212 0.2721627,-0.5271 0.2721627,-0.20671 0.6907421,-0.20671 0.2704402,0 0.4960941,0.0517 0.2256539,0.0517 0.3996313,0.12747 v 0.40308 H 6.65435 q -0.1464166,-0.12403 -0.3858509,-0.20499 -0.2377118,-0.0827 -0.4874814,-0.0827 -0.2738852,0 -0.4409725,0.11369 -0.1653646,0.11369 -0.1653646,0.29283 0,0.1602 0.082682,0.25149 0.082682,0.0913 0.2911108,0.13953 0.1102431,0.0241 0.3135038,0.0586 0.2032608,0.0344 0.3445098,0.0706 0.2859431,0.0758 0.4306372,0.2291 0.1446941,0.15331 0.1446941,0.42892 z"
         style="font-style:normal;font-variant:normal;font-weight:normal;font-stretch:normal;font-size:3.52778px;font-family:Sans;-inkscape-font-specification:'Sans, Normal';font-variant-ligatures:normal;font-variant-caps:normal;font-variant-numeric:normal;font-variant-east-asian:normal;stroke-width:0.264583"
         id="path897" />
      <path
         d="m 8.9970171,221.26287 q 0,0.23427 -0.067179,0.42892 -0.067179,0.19292 -0.1894804,0.32728 -0.1136882,0.12747 -0.2687176,0.19809 -0.1533069,0.0689 -0.3255618,0.0689 -0.1498617,0 -0.2721627,-0.0327 -0.1205784,-0.0327 -0.2463245,-0.10163 v 0.80615 H 7.3037515 v -2.63378 h 0.3238392 v 0.20154 q 0.1291912,-0.10852 0.2893882,-0.18087 0.1619196,-0.0741 0.3445098,-0.0741 0.3479549,0 0.5408803,0.26355 0.1946481,0.26183 0.1946481,0.72864 z m -0.3341745,0.009 q 0,-0.34795 -0.1188559,-0.52021 -0.1188559,-0.17225 -0.3651803,-0.17225 -0.1395265,0 -0.2807755,0.0603 -0.141249,0.0603 -0.2704402,0.15847 v 1.09038 q 0.1378039,0.062 0.2359892,0.0844 0.099908,0.0224 0.2256539,0.0224 0.2704402,0 0.4220245,-0.18259 0.1515843,-0.18259 0.1515843,-0.54088 z"
         style="font-style:normal;font-variant:normal;font-weight:normal;font-stretch:normal;font-size:3.52778px;font-family:Sans;-inkscape-font-specification:'Sans, Normal';font-variant-ligatures:normal;font-variant-caps:normal;font-variant-numeric:normal;font-variant-east-asian:normal;stroke-width:0.264583"
         id="path899" />
      <path
         d="m 10.702341,220.6772 h -0.01723 q -0.07235,-0.0172 -0.141249,-0.0241 -0.06718,-0.009 -0.160197,-0.009 -0.149862,0 -0.289388,0.0672 -0.1395266,0.0654 -0.2687177,0.17053 v 1.36598 H 9.5017241 v -1.92409 h 0.3238392 v 0.28422 q 0.1929257,-0.15503 0.3393417,-0.21876 0.14814,-0.0655 0.301446,-0.0655 0.08441,0 0.122301,0.005 0.0379,0.003 0.113689,0.0155 z"
         style="font-style:normal;font-variant:normal;font-weight:normal;font-stretch:normal;font-size:3.52778px;font-family:Sans;-inkscape-font-specification:'Sans, Normal';font-variant-ligatures:normal;font-variant-caps:normal;font-variant-numeric:normal;font-variant-east-asian:normal;stroke-width:0.264583"
         id="path901" />
      <path
         d="m 11.358632,220.00197 h -0.365181 v -0.3359 h 0.365181 z m -0.02067,2.2462 h -0.323839 v -1.92409 h 0.323839 z"
         style="font-style:normal;font-variant:normal;font-weight:normal;font-stretch:normal;font-size:3.52778px;font-family:Sans;-inkscape-font-specification:'Sans, Normal';font-variant-ligatures:normal;font-variant-caps:normal;font-variant-numeric:normal;font-variant-east-asian:normal;stroke-width:0.264583"
         id="path903" />
      <path
         d="m 13.591055,222.24817 h -0.323839 v -1.09554 q 0,-0.13264 -0.0155,-0.24805 -0.0155,-0.11713 -0.05684,-0.18259 -0.04306,-0.0724 -0.124024,-0.1068 -0.08096,-0.0362 -0.210151,-0.0362 -0.132636,0 -0.27733,0.0655 -0.144694,0.0655 -0.277331,0.16708 v 1.43661 h -0.323839 v -1.92409 h 0.323839 v 0.2136 q 0.151585,-0.12575 0.313504,-0.19637 0.16192,-0.0706 0.332452,-0.0706 0.311782,0 0.475424,0.18776 0.163642,0.18776 0.163642,0.54088 z"
         style="font-style:normal;font-variant:normal;font-weight:normal;font-stretch:normal;font-size:3.52778px;font-family:Sans;-inkscape-font-specification:'Sans, Normal';font-variant-ligatures:normal;font-variant-caps:normal;font-variant-numeric:normal;font-variant-east-asian:normal;stroke-width:0.264583"
         id="path905" />
      <path
         d="m 15.775247,222.02941 q 0,0.4892 -0.222209,0.7183 -0.222209,0.2291 -0.683852,0.2291 -0.153307,0 -0.299723,-0.0224 -0.144694,-0.0207 -0.285943,-0.0603 v -0.33072 h 0.01722 q 0.07924,0.031 0.251492,0.0758 0.172255,0.0465 0.34451,0.0465 0.165365,0 0.273885,-0.0396 0.108521,-0.0396 0.16881,-0.11025 0.06029,-0.0672 0.08613,-0.16191 0.02584,-0.0948 0.02584,-0.21188 v -0.1757 q -0.146417,0.11713 -0.280776,0.1757 -0.132636,0.0568 -0.339342,0.0568 -0.34451,0 -0.54777,-0.24805 -0.201539,-0.24977 -0.201539,-0.7028 0,-0.24805 0.0689,-0.42719 0.07062,-0.18087 0.191203,-0.31178 0.111966,-0.12231 0.272163,-0.18949 0.160197,-0.0689 0.318671,-0.0689 0.167088,0 0.279053,0.0344 0.113689,0.0327 0.239435,0.10163 l 0.02067,-0.0827 h 0.303169 z m -0.323839,-0.31006 v -1.04904 q -0.129192,-0.0586 -0.241157,-0.0827 -0.110243,-0.0258 -0.220486,-0.0258 -0.266996,0 -0.420302,0.17915 -0.153307,0.17914 -0.153307,0.52021 0,0.32384 0.113688,0.49092 0.113688,0.16709 0.377238,0.16709 0.141249,0 0.282498,-0.0534 0.142972,-0.0551 0.261828,-0.14641 z"
         style="font-style:normal;font-variant:normal;font-weight:normal;font-stretch:normal;font-size:3.52778px;font-family:Sans;-inkscape-font-specification:'Sans, Normal';font-variant-ligatures:normal;font-variant-caps:normal;font-variant-numeric:normal;font-variant-east-asian:normal;stroke-width:0.264583"
         id="path907" />
    </g>
    <g
       aria-label="Noise"
       id="text2783"
       style="font-size:3.52777px;line-height:1.25;font-family:Sans;-inkscape-font-specification:'Sans, Normal';stroke-width:0.264583">
      <path
         d="M 7.1772119,198.05769 H 6.7551886 l -1.2161161,-2.29443 v 2.29443 H 5.2204019 v -2.56486 h 0.528821 l 1.1093183,2.09461 v -2.09461 h 0.3186707 z"
         style="stroke-width:0.264583"
         id="path886" />
      <path
         d="m 9.4733631,197.09651 q 0,0.47026 -0.2411562,0.74242 -0.2411561,0.27216 -0.645954,0.27216 -0.4082429,0 -0.649399,-0.27216 -0.2394337,-0.27216 -0.2394337,-0.74242 0,-0.47025 0.2394337,-0.74241 0.2411561,-0.27389 0.649399,-0.27389 0.4047979,0 0.645954,0.27389 0.2411562,0.27216 0.2411562,0.74241 z m -0.3341736,0 q 0,-0.37379 -0.1464162,-0.55466 -0.1464162,-0.18258 -0.4065204,-0.18258 -0.2635492,0 -0.4099654,0.18258 -0.1446937,0.18087 -0.1446937,0.55466 0,0.36174 0.1464162,0.5495 0.1464163,0.18603 0.4082429,0.18603 0.2583816,0 0.4047979,-0.18431 0.1481387,-0.18604 0.1481387,-0.55122 z"
         style="stroke-width:0.264583"
         id="path888" />
      <path
         d="M 10.3243,195.8115 H 9.9591205 v -0.3359 H 10.3243 Z m -0.02067,2.24619 H 9.979791 v -1.92408 h 0.323838 z"
         style="stroke-width:0.264583"
         id="path890" />
      <path
         d="m 12.322451,197.50303 q 0,0.26355 -0.218763,0.43236 -0.217041,0.16881 -0.594278,0.16881 -0.213596,0 -0.39274,-0.0499 -0.177422,-0.0517 -0.298,-0.11197 v -0.36345 h 0.01723 q 0.153307,0.11541 0.341064,0.18431 0.187757,0.0672 0.360012,0.0672 0.213595,0 0.334173,-0.0689 0.120578,-0.0689 0.120578,-0.21704 0,-0.11369 -0.06546,-0.17226 -0.06546,-0.0586 -0.251492,-0.0999 -0.0689,-0.0155 -0.180867,-0.0362 -0.110243,-0.0207 -0.201538,-0.0448 -0.253214,-0.0672 -0.360011,-0.19637 -0.105075,-0.13091 -0.105075,-0.32039 0,-0.11885 0.04823,-0.22393 0.04995,-0.10508 0.149861,-0.18776 0.09646,-0.081 0.244601,-0.12747 0.149862,-0.0482 0.334174,-0.0482 0.172254,0 0.347954,0.0431 0.177422,0.0413 0.294555,0.10163 v 0.34623 h -0.01723 q -0.124023,-0.0913 -0.301445,-0.15331 -0.177422,-0.0637 -0.347954,-0.0637 -0.177422,0 -0.299722,0.0689 -0.122301,0.0672 -0.122301,0.20154 0,0.11885 0.07407,0.17914 0.07235,0.0603 0.234266,0.0982 0.08957,0.0207 0.199815,0.0413 0.111966,0.0207 0.186035,0.0379 0.225653,0.0517 0.347954,0.17743 0.122301,0.12746 0.122301,0.33761 z"
         style="stroke-width:0.264583"
         id="path892" />
      <path
         d="m 14.398116,197.12924 h -1.417654 q 0,0.17742 0.0534,0.31006 0.0534,0.13091 0.146416,0.21532 0.08957,0.0827 0.211873,0.12402 0.124024,0.0413 0.272162,0.0413 0.19637,0 0.394463,-0.0775 0.199815,-0.0792 0.28422,-0.15503 h 0.01722 v 0.35312 q -0.163642,0.0689 -0.334173,0.11541 -0.170532,0.0465 -0.35829,0.0465 -0.478867,0 -0.747584,-0.25838 -0.268717,-0.26011 -0.268717,-0.73725 0,-0.47198 0.25666,-0.74931 0.258381,-0.27733 0.678682,-0.27733 0.389295,0 0.599445,0.22738 0.211873,0.22737 0.211873,0.64595 z m -0.315225,-0.24804 q -0.0017,-0.25494 -0.129191,-0.39447 -0.125746,-0.13952 -0.384128,-0.13952 -0.260104,0 -0.415133,0.1533 -0.153306,0.15331 -0.173977,0.38069 z"
         style="stroke-width:0.264583"
         id="path894" />
    </g>
    <g
       aria-label="Mean"
       id="text2787"
       style="font-size:3.52777px;line-height:1.25;font-family:Sans;-inkscape-font-specification:'Sans, Normal';stroke-width:0.264583">
      <path
         d="M 7.8824711,247.95059 H 7.5414074 v -2.21002 l -0.7131332,1.50378 H 6.6250141 l -0.7079656,-1.50378 v 2.21002 H 5.5983778 v -2.56487 h 0.4650869 l 0.68385,1.42799 0.6614569,-1.42799 h 0.4736995 z"
         style="stroke-width:0.264583"
         id="path910" />
      <path
         d="M 10.159674,247.02214 H 8.7420207 q 0,0.17742 0.053399,0.31006 0.053399,0.13091 0.1464163,0.21532 0.089572,0.0827 0.2118729,0.12402 0.1240232,0.0413 0.2721619,0.0413 0.19637,0 0.3944626,-0.0775 0.1998146,-0.0792 0.2842196,-0.15503 h 0.01723 v 0.35312 q -0.1636411,0.0689 -0.3341729,0.11541 -0.1705319,0.0465 -0.3582892,0.0465 -0.4788672,0 -0.7475841,-0.25838 -0.2687168,-0.26011 -0.2687168,-0.73725 0,-0.47198 0.256659,-0.74931 0.2583816,-0.27733 0.6786824,-0.27733 0.3892949,0 0.5994453,0.22738 0.2118723,0.22737 0.2118723,0.64595 z m -0.3152252,-0.24805 q -0.00172,-0.25493 -0.1291908,-0.39446 -0.1257457,-0.13952 -0.3841273,-0.13952 -0.2601041,0 -0.4151331,0.1533 -0.1533064,0.15331 -0.1739769,0.38068 z"
         style="stroke-width:0.264583"
         id="path912" />
      <path
         d="m 12.145768,247.95059 h -0.322116 v -0.20498 q -0.04306,0.0293 -0.117133,0.0827 -0.07235,0.0517 -0.141249,0.0827 -0.08096,0.0396 -0.186035,0.0655 -0.105075,0.0276 -0.246323,0.0276 -0.260104,0 -0.440972,-0.17225 -0.180867,-0.17226 -0.180867,-0.43925 0,-0.21877 0.09302,-0.35312 0.09474,-0.13608 0.268717,-0.2136 0.175699,-0.0775 0.422023,-0.10507 0.246324,-0.0276 0.528821,-0.0413 v -0.0499 q 0,-0.11024 -0.03962,-0.18259 -0.0379,-0.0724 -0.110243,-0.11369 -0.0689,-0.0396 -0.165364,-0.0534 -0.09646,-0.0138 -0.201537,-0.0138 -0.127469,0 -0.28422,0.0344 -0.156752,0.0327 -0.323838,0.0965 h -0.01723 v -0.32901 q 0.09474,-0.0258 0.273885,-0.0568 0.179144,-0.031 0.353121,-0.031 0.20326,0 0.353122,0.0345 0.151584,0.0327 0.261826,0.11369 0.108521,0.0792 0.165365,0.20498 0.05684,0.12575 0.05684,0.31178 z m -0.322116,-0.4737 v -0.53571 q -0.148139,0.009 -0.349677,0.0258 -0.199815,0.0172 -0.316948,0.0499 -0.139526,0.0396 -0.225653,0.12403 -0.08613,0.0827 -0.08613,0.22909 0,0.16537 0.09991,0.24977 0.09991,0.0827 0.304891,0.0827 0.170532,0 0.31178,-0.0655 0.141249,-0.0672 0.261827,-0.1602 z"
         style="stroke-width:0.264583"
         id="path914" />
      <path
         d="m 14.38163,247.95059 h -0.323839 v -1.09554 q 0,-0.13263 -0.0155,-0.24804 -0.0155,-0.11714 -0.05684,-0.18259 -0.04306,-0.0724 -0.124024,-0.1068 -0.08096,-0.0362 -0.21015,-0.0362 -0.132636,0 -0.27733,0.0654 -0.144693,0.0655 -0.277329,0.16709 v 1.4366 H 12.77278 v -1.92408 h 0.323838 v 0.2136 q 0.151584,-0.12575 0.313503,-0.19637 0.161919,-0.0706 0.332451,-0.0706 0.31178,0 0.475422,0.18776 0.163642,0.18776 0.163642,0.54088 z"
         style="stroke-width:0.264583"
         id="path916" />
    </g>
  </g>
</svg>
