<?xml version="1.0" encoding="UTF-8" standalone="no"?>
<svg
   xmlns:dc="http://purl.org/dc/elements/1.1/"
   xmlns:cc="http://creativecommons.org/ns#"
   xmlns:rdf="http://www.w3.org/1999/02/22-rdf-syntax-ns#"
   xmlns:svg="http://www.w3.org/2000/svg"
   xmlns="http://www.w3.org/2000/svg"
   xmlns:sodipodi="http://sodipodi.sourceforge.net/DTD/sodipodi-0.dtd"
   xmlns:inkscape="http://www.inkscape.org/namespaces/inkscape"
   sodipodi:docname="OrnsteinUhlenbeckPlate.svg"
   inkscape:version="1.0 (4035a4f, 2020-05-01)"
   id="svg8"
   version="1.1"
   viewBox="0 0 20.320001 128.50002"
   height="128.5mm"
   width="20.32mm">
  <defs
     id="defs2" />
  <sodipodi:namedview
     inkscape:document-rotation="0"
     inkscape:snap-nodes="false"
     inkscape:snap-bbox-midpoints="true"
     inkscape:window-maximized="0"
     inkscape:window-y="23"
     inkscape:window-x="0"
     inkscape:window-height="1034"
     inkscape:window-width="1313"
     inkscape:snap-bbox-edge-midpoints="false"
     inkscape:bbox-nodes="false"
     inkscape:snap-page="true"
     inkscape:snap-bbox="true"
     units="mm"
     showgrid="false"
     inkscape:current-layer="layer1"
     inkscape:document-units="mm"
     inkscape:cy="239.07055"
     inkscape:cx="18.523003"
     inkscape:zoom="1.4"
     inkscape:pageshadow="2"
     inkscape:pageopacity="0.0"
     borderopacity="1.0"
     bordercolor="#666666"
     pagecolor="#ffffff"
     id="base" />
  <metadata
     id="metadata5">
    <rdf:RDF>
      <cc:Work
         rdf:about="">
        <dc:format>image/svg+xml</dc:format>
        <dc:type
           rdf:resource="http://purl.org/dc/dcmitype/StillImage" />
        <dc:title></dc:title>
      </cc:Work>
    </rdf:RDF>
  </metadata>
  <g
     style="display:inline"
     transform="translate(0,-168.49998)"
     id="layer1"
     inkscape:groupmode="layer"
     inkscape:label="Layer 1">
    <rect
       y="168.63361"
       x="-0.0053724367"
       height="128.5"
       width="20.32"
       id="rect420"
       style="display:inline;opacity:1;vector-effect:none;fill:#107b38;fill-opacity:1;fill-rule:evenodd;stroke:none;stroke-width:0.530199;stroke-linecap:butt;stroke-linejoin:miter;stroke-miterlimit:4;stroke-dasharray:none;stroke-dashoffset:0;stroke-opacity:1;paint-order:normal" />
    <rect
       ry="0"
       y="277.26245"
       x="4.1599998"
       height="16"
       width="12"
       id="rect75"
       style="fill:#000000;fill-opacity:1;stroke-width:0.252659" />
    <text
       id="text50"
       y="173.92349"
       x="7.2162771"
       style="font-style:normal;font-weight:normal;font-size:10.5833px;line-height:1.25;font-family:sans-serif;fill:#000000;fill-opacity:1;stroke:none;stroke-width:0.264583"
       xml:space="preserve"><tspan
         style="stroke-width:0.264583"
         y="173.92349"
         x="7.2162771"
         id="tspan48"
         sodipodi:role="line" /></text>
    <text
       id="text54"
       y="177.93254"
       x="5.6126599"
       style="font-style:normal;font-weight:normal;font-size:10.5833px;line-height:1.25;font-family:sans-serif;fill:#000000;fill-opacity:1;stroke:none;stroke-width:0.264583"
       xml:space="preserve"><tspan
         style="stroke-width:0.264583"
         y="177.93254"
         x="5.6126599"
         id="tspan52"
         sodipodi:role="line" /></text>
    <g
       style="font-size:4.23333px;line-height:1.25;font-family:Sans;-inkscape-font-specification:'Sans, Normal';stroke-width:0.264583"
       id="text137"
       aria-label="Trig"
       transform="translate(-4.9875612,18.817768)">
      <path
         id="path139"
         style="stroke-width:0.264583"
         d="m 13.833943,252.64854 h -1.099674 v 2.71404 h -0.409277 v -2.71404 h -1.099673 v -0.36381 h 2.608624 z" />
      <path
         id="path141"
         style="stroke-width:0.264583"
         d="m 15.66122,253.47742 h -0.02067 q -0.08682,-0.0207 -0.169499,-0.0289 -0.08061,-0.0103 -0.192236,-0.0103 -0.179834,0 -0.347266,0.0806 -0.167431,0.0785 -0.32246,0.20463 v 1.63918 h -0.388607 v -2.3089 h 0.388607 v 0.34106 q 0.23151,-0.18603 0.40721,-0.26251 0.177767,-0.0785 0.361734,-0.0785 0.101286,0 0.146761,0.006 0.04548,0.004 0.136426,0.0186 z" />
      <path
         id="path143"
         style="stroke-width:0.264583"
         d="m 16.448769,252.66714 h -0.438216 v -0.40308 h 0.438216 z m -0.0248,2.69544 h -0.388607 v -2.3089 h 0.388607 z" />
      <path
         id="path145"
         style="stroke-width:0.264583"
         d="m 19.069795,255.10006 q 0,0.58705 -0.26665,0.86197 -0.266651,0.27491 -0.820621,0.27491 -0.183968,0 -0.359668,-0.0269 -0.173633,-0.0248 -0.343131,-0.0723 v -0.39688 h 0.02067 q 0.09508,0.0372 0.30179,0.0909 0.206706,0.0558 0.413411,0.0558 0.198438,0 0.328662,-0.0475 0.130225,-0.0475 0.202572,-0.13229 0.07235,-0.0806 0.103353,-0.19431 0.03101,-0.11368 0.03101,-0.25424 v -0.21084 q -0.175699,0.14056 -0.33693,0.21084 -0.159163,0.0682 -0.40721,0.0682 -0.413411,0 -0.657323,-0.29766 -0.241846,-0.29972 -0.241846,-0.84336 0,-0.29765 0.08268,-0.51263 0.08475,-0.21704 0.229444,-0.37413 0.134358,-0.14676 0.326594,-0.22738 0.192237,-0.0827 0.382406,-0.0827 0.200504,0 0.334863,0.0413 0.136425,0.0393 0.28732,0.12196 l 0.02481,-0.0992 h 0.363802 z m -0.388607,-0.37207 v -1.25883 q -0.155029,-0.0703 -0.289387,-0.0992 -0.132292,-0.031 -0.264584,-0.031 -0.320393,0 -0.504361,0.21498 -0.183968,0.21497 -0.183968,0.62425 0,0.3886 0.136426,0.58911 0.136425,0.2005 0.452685,0.2005 0.169498,0 0.338997,-0.0641 0.171566,-0.0661 0.314192,-0.1757 z" />
    </g>
    <circle
       r="2"
       style="display:inline;opacity:1;vector-effect:none;fill:#00ffff;fill-opacity:1;fill-rule:evenodd;stroke:none;stroke-width:0.5;stroke-linecap:butt;stroke-linejoin:miter;stroke-miterlimit:4;stroke-dasharray:none;stroke-dashoffset:0;stroke-opacity:1;paint-order:normal"
       id="path4954-2"
       cx="10.16"
       cy="201.27911"
       inkscape:label="noise" />
    <circle
       inkscape:label="time"
       r="4"
       cy="240.32909"
       cx="10.16"
       id="path4954-2-3"
       style="display:inline;opacity:1;vector-effect:none;fill:#808000;fill-opacity:1;fill-rule:evenodd;stroke:none;stroke-width:1;stroke-linecap:butt;stroke-linejoin:miter;stroke-miterlimit:4;stroke-dasharray:none;stroke-dashoffset:0;stroke-opacity:1;paint-order:normal" />
    <g
       transform="translate(-13.053848,5.1031005)"
       style="font-size:4.23333px;line-height:1.25;font-family:Sans;-inkscape-font-specification:'Sans, Normal';fill:#ffffff;stroke-width:0.264583"
       id="text2493"
       aria-label="Out">
      <path
         id="path2495"
         style="fill:#ffffff;stroke-width:0.264583"
         d="m 21.68398,284.57692 q 0.188102,0.20671 0.287321,0.50643 0.101285,0.29972 0.101285,0.68006 0,0.38034 -0.103352,0.68213 -0.101286,0.29972 -0.285254,0.50023 -0.190169,0.20877 -0.450618,0.31419 -0.258382,0.10542 -0.591178,0.10542 -0.324528,0 -0.591178,-0.10749 -0.264583,-0.10749 -0.450618,-0.31212 -0.186035,-0.20464 -0.287321,-0.5023 -0.09922,-0.29765 -0.09922,-0.68006 0,-0.3762 0.09922,-0.67386 0.09922,-0.29972 0.289388,-0.51263 0.181901,-0.20257 0.450618,-0.31006 0.270784,-0.10748 0.589111,-0.10748 0.330729,0 0.593245,0.10955 0.264583,0.10749 0.448551,0.30799 z m -0.03721,1.18649 q 0,-0.59945 -0.268717,-0.92397 -0.268718,-0.3266 -0.733805,-0.3266 -0.469222,0 -0.737939,0.3266 -0.26665,0.32452 -0.26665,0.92397 0,0.60565 0.272851,0.92811 0.272852,0.32039 0.731738,0.32039 0.458886,0 0.729671,-0.32039 0.272851,-0.32246 0.272851,-0.92811 z" />
      <path
         id="path2497"
         style="fill:#ffffff;stroke-width:0.264583"
         d="m 24.604729,287.3013 h -0.388606 v -0.25631 q -0.19637,0.15502 -0.376204,0.23771 -0.179834,0.0827 -0.396875,0.0827 -0.363802,0 -0.566373,-0.22118 -0.202572,-0.22324 -0.202572,-0.65319 v -1.49861 h 0.388607 v 1.31465 q 0,0.1757 0.01654,0.30179 0.01654,0.12402 0.07028,0.2129 0.05581,0.091 0.144694,0.13229 0.08888,0.0414 0.258382,0.0414 0.150895,0 0.328662,-0.0786 0.179834,-0.0786 0.334863,-0.20051 v -1.72392 h 0.388606 z" />
      <path
         id="path2499"
         style="fill:#ffffff;stroke-width:0.264583"
         d="m 26.568432,287.28063 q -0.109554,0.0289 -0.239778,0.0475 -0.128157,0.0186 -0.229443,0.0186 -0.353467,0 -0.537435,-0.19017 -0.183968,-0.19017 -0.183968,-0.60979 v -1.22783 h -0.262516 v -0.32659 h 0.262516 v -0.66353 h 0.388607 v 0.66353 h 0.802017 v 0.32659 h -0.802017 v 1.05214 q 0,0.1819 0.0083,0.28525 0.0083,0.10128 0.05788,0.19017 0.04548,0.0827 0.124023,0.12195 0.08062,0.0372 0.243913,0.0372 0.09508,0 0.198437,-0.0269 0.103353,-0.0289 0.148828,-0.0475 h 0.02067 z" />
    </g>
    <circle
       inkscape:label="noise"
       r="4"
       cy="190.69577"
       cx="10.16"
       id="path4954-2-5"
       style="display:inline;opacity:1;vector-effect:none;fill:#00ffff;fill-opacity:1;fill-rule:evenodd;stroke:none;stroke-width:1;stroke-linecap:butt;stroke-linejoin:miter;stroke-miterlimit:4;stroke-dasharray:none;stroke-dashoffset:0;stroke-opacity:1;paint-order:normal" />
    <circle
       inkscape:label="trig"
       style="display:inline;opacity:1;vector-effect:none;fill:#00ff00;fill-opacity:1;fill-rule:evenodd;stroke:none;stroke-width:1;stroke-linecap:butt;stroke-linejoin:miter;stroke-miterlimit:4;stroke-dasharray:none;stroke-dashoffset:0;stroke-opacity:1;paint-order:normal"
       id="circle4956"
       cx="10.16"
       cy="264.80008"
       r="4" />
    <circle
       inkscape:label="noise"
       cy="250.91243"
       cx="10.16"
       id="path4954-2-39"
       style="display:inline;opacity:1;vector-effect:none;fill:#808000;fill-opacity:1;fill-rule:evenodd;stroke:none;stroke-width:0.499999;stroke-linecap:butt;stroke-linejoin:miter;stroke-miterlimit:4;stroke-dasharray:none;stroke-dashoffset:0;stroke-opacity:1;paint-order:normal"
       r="2" />
    <circle
       r="4"
       cy="282.26245"
       cx="10.160003"
       id="circle4956-4"
       style="display:inline;opacity:1;vector-effect:none;fill:#00ff00;fill-opacity:1;fill-rule:evenodd;stroke:none;stroke-width:1;stroke-linecap:butt;stroke-linejoin:miter;stroke-miterlimit:4;stroke-dasharray:none;stroke-dashoffset:0;stroke-opacity:1;paint-order:normal"
       inkscape:label="trig" />
    <path
       style="fill:#ffff00;stroke:#000000;stroke-width:0.264583px;stroke-linecap:butt;stroke-linejoin:miter;stroke-opacity:1"
       d="m 8.8145136,170.52216 0.755952,4.58296 2.0788694,-1.88988 -3.4962791,-1.6064 2.8820681,3.68527 0.236235,-5.10268 -2.5513394,4.63021 3.3072914,-2.88207 z"
       id="path1000" />
    <g
       style="font-size:4.23333px;line-height:1.25;font-family:Sans;-inkscape-font-specification:'Sans, Normal';stroke-width:0.264583"
       id="text905"
       aria-label=" Ornstein
Uhlenbeck">
      <path
         id="path2700"
         style="font-style:normal;font-variant:normal;font-weight:normal;font-stretch:normal;font-size:3.52778px;font-family:Sans;-inkscape-font-specification:'Sans, Normal';font-variant-ligatures:normal;font-variant-caps:normal;font-variant-numeric:normal;font-variant-east-asian:normal;stroke-width:0.264583"
         d="m 4.923796,176.77512 q 0.1567519,0.17226 0.2394342,0.42203 0.084405,0.24977 0.084405,0.56671 0,0.31695 -0.086127,0.56845 -0.084405,0.24977 -0.2377117,0.41685 -0.1584745,0.17398 -0.3755157,0.26183 -0.2153186,0.0879 -0.492649,0.0879 -0.2704401,0 -0.4926489,-0.0896 -0.2204863,-0.0896 -0.3755157,-0.26011 -0.1550294,-0.17053 -0.2394343,-0.41858 -0.082682,-0.24804 -0.082682,-0.56672 0,-0.3135 0.082682,-0.56155 0.082682,-0.24977 0.2411569,-0.42719 0.1515843,-0.16881 0.3755156,-0.25838 0.2256539,-0.0896 0.4909264,-0.0896 0.2756078,0 0.4943716,0.0913 0.2204862,0.0896 0.3737926,0.25666 z m -0.031006,0.98874 q 0,-0.49953 -0.2239314,-0.76998 -0.2239313,-0.27216 -0.6115048,-0.27216 -0.3910186,0 -0.61495,0.27216 -0.2222088,0.27045 -0.2222088,0.76998 0,0.50471 0.2273765,0.77343 0.2273764,0.26699 0.6097823,0.26699 0.3824058,0 0.6080597,-0.26699 0.2273765,-0.26872 0.2273765,-0.77343 z" />
      <path
         id="path2702"
         style="font-style:normal;font-variant:normal;font-weight:normal;font-stretch:normal;font-size:3.52778px;font-family:Sans;-inkscape-font-specification:'Sans, Normal';font-variant-ligatures:normal;font-variant-caps:normal;font-variant-numeric:normal;font-variant-east-asian:normal;stroke-width:0.264583"
         d="m 6.9632938,177.47448 h -0.017225 q -0.072347,-0.0172 -0.141249,-0.0241 -0.067179,-0.009 -0.160197,-0.009 -0.1498618,0 -0.2893882,0.0672 -0.1395265,0.0654 -0.2687176,0.17053 v 1.36598 H 5.7626773 V 177.121 h 0.3238392 v 0.28422 q 0.1929254,-0.15503 0.3393421,-0.21876 0.1481392,-0.0655 0.301446,-0.0655 0.084405,0 0.122301,0.005 0.037896,0.003 0.1136882,0.0155 z" />
      <path
         id="path2704"
         style="font-style:normal;font-variant:normal;font-weight:normal;font-stretch:normal;font-size:3.52778px;font-family:Sans;-inkscape-font-specification:'Sans, Normal';font-variant-ligatures:normal;font-variant-caps:normal;font-variant-numeric:normal;font-variant-east-asian:normal;stroke-width:0.264583"
         d="M 8.8804905,179.04544 H 8.5566513 v -1.09554 q 0,-0.13264 -0.015503,-0.24805 -0.015503,-0.11713 -0.056844,-0.18259 -0.043064,-0.0723 -0.1240235,-0.1068 -0.08096,-0.0362 -0.210151,-0.0362 -0.1326363,0 -0.2773304,0.0655 -0.1446941,0.0654 -0.2773303,0.16708 v 1.43661 H 7.2716299 v -1.92409 h 0.3238392 v 0.2136 q 0.1515843,-0.12575 0.3135039,-0.19637 0.1619196,-0.0706 0.3324519,-0.0706 0.3117813,0 0.4754235,0.18776 0.1636421,0.18776 0.1636421,0.54088 z" />
      <path
         id="path2706"
         style="font-style:normal;font-variant:normal;font-weight:normal;font-stretch:normal;font-size:3.52778px;font-family:Sans;-inkscape-font-specification:'Sans, Normal';font-variant-ligatures:normal;font-variant-caps:normal;font-variant-numeric:normal;font-variant-east-asian:normal;stroke-width:0.264583"
         d="m 10.878647,178.49078 q 0,0.26355 -0.218764,0.43236 -0.217041,0.16881 -0.594279,0.16881 -0.2135959,0 -0.392741,-0.0499 -0.1774226,-0.0517 -0.298001,-0.11197 v -0.36346 h 0.017226 q 0.1533069,0.11541 0.3410647,0.18431 0.1877578,0.0672 0.3600133,0.0672 0.213596,0 0.334174,-0.0689 0.120579,-0.0689 0.120579,-0.21704 0,-0.11369 -0.06546,-0.17225 -0.06546,-0.0586 -0.251492,-0.0999 -0.0689,-0.0155 -0.180868,-0.0362 -0.1102435,-0.0207 -0.2015385,-0.0448 -0.2532147,-0.0672 -0.3600128,-0.19637 -0.1050754,-0.13092 -0.1050754,-0.3204 0,-0.11885 0.048231,-0.22393 0.049954,-0.10507 0.1498618,-0.18776 0.096463,-0.081 0.2446019,-0.12746 0.1498618,-0.0482 0.334174,-0.0482 0.172255,0 0.347955,0.0431 0.177423,0.0413 0.294556,0.10163 v 0.34623 h -0.01722 q -0.124024,-0.0913 -0.301447,-0.15331 -0.177422,-0.0637 -0.347954,-0.0637 -0.1774227,0 -0.2997237,0.0689 -0.122301,0.0672 -0.122301,0.20154 0,0.11886 0.07407,0.17915 0.072347,0.0603 0.2342667,0.0982 0.08957,0.0207 0.199816,0.0413 0.111966,0.0207 0.186035,0.0379 0.225654,0.0517 0.347955,0.17742 0.122301,0.12747 0.122301,0.33762 z" />
      <path
         id="path2708"
         style="font-style:normal;font-variant:normal;font-weight:normal;font-stretch:normal;font-size:3.52778px;font-family:Sans;-inkscape-font-specification:'Sans, Normal';font-variant-ligatures:normal;font-variant-caps:normal;font-variant-numeric:normal;font-variant-east-asian:normal;stroke-width:0.264583"
         d="m 12.342814,179.02822 q -0.0913,0.0241 -0.199816,0.0396 -0.106798,0.0155 -0.191202,0.0155 -0.294556,0 -0.447863,-0.15848 -0.153307,-0.15847 -0.153307,-0.50815 v -1.02319 h -0.218764 v -0.27217 h 0.218764 v -0.55293 h 0.323839 v 0.55293 h 0.668349 v 0.27217 h -0.668349 v 0.87677 q 0,0.15159 0.0069,0.23772 0.0069,0.0844 0.04823,0.15847 0.0379,0.0689 0.103353,0.10163 0.06718,0.031 0.20326,0.031 0.07924,0 0.165365,-0.0224 0.08613,-0.0241 0.124024,-0.0396 h 0.01722 z" />
      <path
         id="path2710"
         style="font-style:normal;font-variant:normal;font-weight:normal;font-stretch:normal;font-size:3.52778px;font-family:Sans;-inkscape-font-specification:'Sans, Normal';font-variant-ligatures:normal;font-variant-caps:normal;font-variant-numeric:normal;font-variant-east-asian:normal;stroke-width:0.264583"
         d="M 14.346138,178.11699 H 12.92848 q 0,0.17742 0.0534,0.31006 0.0534,0.13091 0.146417,0.21531 0.08957,0.0827 0.211873,0.12403 0.124024,0.0413 0.272163,0.0413 0.196371,0 0.394464,-0.0775 0.199815,-0.0792 0.28422,-0.15503 h 0.01723 v 0.35313 q -0.163642,0.0689 -0.334175,0.11541 -0.170532,0.0465 -0.35829,0.0465 -0.478868,0 -0.747586,-0.25839 -0.268718,-0.2601 -0.268718,-0.73725 0,-0.47197 0.25666,-0.74931 0.258383,-0.27733 0.678684,-0.27733 0.389296,0 0.599447,0.22738 0.211874,0.22738 0.211874,0.64596 z m -0.315226,-0.24805 q -0.0017,-0.25494 -0.129192,-0.39446 -0.125746,-0.13953 -0.384128,-0.13953 -0.260105,0 -0.415134,0.15331 -0.153307,0.1533 -0.173978,0.38068 z" />
      <path
         id="path2712"
         style="font-style:normal;font-variant:normal;font-weight:normal;font-stretch:normal;font-size:3.52778px;font-family:Sans;-inkscape-font-specification:'Sans, Normal';font-variant-ligatures:normal;font-variant-caps:normal;font-variant-numeric:normal;font-variant-east-asian:normal;stroke-width:0.264583"
         d="m 15.18502,176.79924 h -0.365181 v -0.3359 h 0.365181 z m -0.02067,2.2462 h -0.32384 v -1.92409 h 0.323839 z" />
      <path
         id="path2714"
         style="font-style:normal;font-variant:normal;font-weight:normal;font-stretch:normal;font-size:3.52778px;font-family:Sans;-inkscape-font-specification:'Sans, Normal';font-variant-ligatures:normal;font-variant-caps:normal;font-variant-numeric:normal;font-variant-east-asian:normal;stroke-width:0.264583"
         d="m 17.417443,179.04544 h -0.323839 v -1.09554 q 0,-0.13264 -0.0155,-0.24805 -0.0155,-0.11713 -0.05684,-0.18259 -0.04306,-0.0723 -0.124024,-0.1068 -0.08096,-0.0362 -0.210151,-0.0362 -0.132636,0 -0.27733,0.0655 -0.144694,0.0654 -0.27733,0.16708 v 1.43661 h -0.32384 v -1.92409 h 0.32384 v 0.2136 q 0.151584,-0.12575 0.313503,-0.19637 0.16192,-0.0706 0.332452,-0.0706 0.311782,0 0.475424,0.18776 0.163642,0.18776 0.163642,0.54088 z" />
      <path
         id="path2716"
         style="font-style:normal;font-variant:normal;font-weight:normal;font-stretch:normal;font-size:3.52778px;font-family:Sans;-inkscape-font-specification:'Sans, Normal';font-variant-ligatures:normal;font-variant-caps:normal;font-variant-numeric:normal;font-variant-east-asian:normal;stroke-width:0.264583"
         d="m 3.7025088,183.30702 q 0,0.27905 -0.062012,0.48748 -0.060289,0.20671 -0.1998156,0.34451 -0.1326363,0.13091 -0.3100588,0.1912 -0.1774226,0.0603 -0.4134118,0.0603 -0.2411568,0 -0.4203019,-0.0637 -0.1791451,-0.0637 -0.301446,-0.18776 -0.1395265,-0.14125 -0.2015383,-0.34106 -0.060289,-0.19982 -0.060289,-0.49093 v -1.53479 h 0.3410647 v 1.55201 q 0,0.20843 0.027561,0.32901 0.029283,0.12058 0.096463,0.21876 0.075792,0.11197 0.2049833,0.16881 0.1309138,0.0568 0.3135039,0.0568 0.1843128,0 0.3135039,-0.0551 0.1291912,-0.0568 0.2067059,-0.17054 0.067179,-0.0982 0.09474,-0.22393 0.029283,-0.12747 0.029283,-0.31522 v -1.56063 h 0.3410647 z" />
      <path
         id="path2718"
         style="font-style:normal;font-variant:normal;font-weight:normal;font-stretch:normal;font-size:3.52778px;font-family:Sans;-inkscape-font-specification:'Sans, Normal';font-variant-ligatures:normal;font-variant-caps:normal;font-variant-numeric:normal;font-variant-east-asian:normal;stroke-width:0.264583"
         d="M 5.9383771,184.3371 H 5.6145379 v -1.09554 q 0,-0.13263 -0.015503,-0.24805 -0.015503,-0.11713 -0.056844,-0.18259 -0.043064,-0.0723 -0.1240235,-0.10679 -0.08096,-0.0362 -0.210151,-0.0362 -0.1326363,0 -0.2773304,0.0655 -0.1446941,0.0655 -0.2773303,0.16709 v 1.4366 H 4.3295165 v -2.68028 h 0.3238392 v 0.96979 q 0.1515843,-0.12574 0.3135039,-0.19637 0.1619196,-0.0706 0.3324519,-0.0706 0.3117813,0 0.4754235,0.18775 0.1636421,0.18776 0.1636421,0.54088 z" />
      <path
         id="path2720"
         style="font-style:normal;font-variant:normal;font-weight:normal;font-stretch:normal;font-size:3.52778px;font-family:Sans;-inkscape-font-specification:'Sans, Normal';font-variant-ligatures:normal;font-variant-caps:normal;font-variant-numeric:normal;font-variant-east-asian:normal;stroke-width:0.264583"
         d="M 6.8892241,184.3371 H 6.5653849 v -2.68028 h 0.3238392 z" />
      <path
         id="path2722"
         style="font-style:normal;font-variant:normal;font-weight:normal;font-stretch:normal;font-size:3.52778px;font-family:Sans;-inkscape-font-specification:'Sans, Normal';font-variant-ligatures:normal;font-variant-caps:normal;font-variant-numeric:normal;font-variant-east-asian:normal;stroke-width:0.264583"
         d="M 9.1440405,183.40865 H 7.7263828 q 0,0.17742 0.053399,0.31006 0.053399,0.13091 0.1464167,0.21532 0.089573,0.0827 0.2118735,0.12402 0.1240235,0.0413 0.2721627,0.0413 0.1963706,0 0.3944637,-0.0775 0.1998157,-0.0792 0.2842206,-0.15503 h 0.017225 v 0.35312 q -0.1636422,0.0689 -0.3341745,0.11541 -0.1705324,0.0465 -0.3582902,0.0465 -0.4788686,0 -0.7475862,-0.25838 -0.2687176,-0.26011 -0.2687176,-0.73725 0,-0.47198 0.2566598,-0.74931 0.2583823,-0.27733 0.6786842,-0.27733 0.3892961,0 0.599447,0.22737 0.2118735,0.22738 0.2118735,0.64596 z M 8.8288141,183.1606 q -0.00172,-0.25494 -0.1291912,-0.39446 -0.125746,-0.13953 -0.3841284,-0.13953 -0.2601048,0 -0.4151342,0.15331 -0.1533069,0.15331 -0.1739775,0.38068 z" />
      <path
         id="path2724"
         style="font-style:normal;font-variant:normal;font-weight:normal;font-stretch:normal;font-size:3.52778px;font-family:Sans;-inkscape-font-specification:'Sans, Normal';font-variant-ligatures:normal;font-variant-caps:normal;font-variant-numeric:normal;font-variant-east-asian:normal;stroke-width:0.264583"
         d="m 11.243828,184.3371 h -0.32384 v -1.09554 q 0,-0.13263 -0.0155,-0.24805 -0.0155,-0.11713 -0.05684,-0.18259 -0.04306,-0.0723 -0.124023,-0.10679 -0.08096,-0.0362 -0.210151,-0.0362 -0.132636,0 -0.277331,0.0655 -0.144694,0.0655 -0.2773299,0.16709 v 1.4366 H 9.6349669 v -1.92408 h 0.3238392 v 0.21359 q 0.1515839,-0.12574 0.3135039,-0.19637 0.16192,-0.0706 0.332452,-0.0706 0.311781,0 0.475423,0.18775 0.163643,0.18776 0.163643,0.54088 z" />
      <path
         id="path2726"
         style="font-style:normal;font-variant:normal;font-weight:normal;font-stretch:normal;font-size:3.52778px;font-family:Sans;-inkscape-font-specification:'Sans, Normal';font-variant-ligatures:normal;font-variant-caps:normal;font-variant-numeric:normal;font-variant-east-asian:normal;stroke-width:0.264583"
         d="m 13.560655,183.36042 q 0,0.24115 -0.0689,0.43408 -0.06718,0.19293 -0.18259,0.32384 -0.122301,0.13608 -0.268717,0.20498 -0.146417,0.0672 -0.322117,0.0672 -0.163642,0 -0.285943,-0.0396 -0.122301,-0.0379 -0.241157,-0.10335 l -0.02067,0.0896 H 11.86739 v -2.68028 h 0.323839 v 0.95773 q 0.136081,-0.11196 0.289388,-0.18259 0.153307,-0.0723 0.34451,-0.0723 0.341065,0 0.537435,0.26182 0.198093,0.26183 0.198093,0.73898 z m -0.334174,0.009 q 0,-0.34451 -0.113688,-0.52193 -0.113689,-0.17915 -0.366903,-0.17915 -0.141249,0 -0.285943,0.062 -0.144695,0.0603 -0.268718,0.15676 v 1.10243 q 0.137804,0.062 0.235989,0.0861 0.09991,0.0241 0.225654,0.0241 0.268718,0 0.420302,-0.1757 0.153307,-0.17742 0.153307,-0.55466 z" />
      <path
         id="path2728"
         style="font-style:normal;font-variant:normal;font-weight:normal;font-stretch:normal;font-size:3.52778px;font-family:Sans;-inkscape-font-specification:'Sans, Normal';font-variant-ligatures:normal;font-variant-caps:normal;font-variant-numeric:normal;font-variant-east-asian:normal;stroke-width:0.264583"
         d="m 15.675946,183.40865 h -1.417658 q 0,0.17742 0.0534,0.31006 0.0534,0.13091 0.146417,0.21532 0.08957,0.0827 0.211874,0.12402 0.124023,0.0413 0.272162,0.0413 0.196371,0 0.394464,-0.0775 0.199816,-0.0792 0.284221,-0.15503 h 0.01722 v 0.35312 q -0.163642,0.0689 -0.334174,0.11541 -0.170533,0.0465 -0.358291,0.0465 -0.478868,0 -0.747586,-0.25838 -0.268717,-0.26011 -0.268717,-0.73725 0,-0.47198 0.256659,-0.74931 0.258383,-0.27733 0.678685,-0.27733 0.389296,0 0.599447,0.22737 0.211873,0.22738 0.211873,0.64596 z M 15.36072,183.1606 q -0.0017,-0.25494 -0.129191,-0.39446 -0.125746,-0.13953 -0.384129,-0.13953 -0.260105,0 -0.415134,0.15331 -0.153307,0.15331 -0.173978,0.38068 z" />
      <path
         id="path2730"
         style="font-style:normal;font-variant:normal;font-weight:normal;font-stretch:normal;font-size:3.52778px;font-family:Sans;-inkscape-font-specification:'Sans, Normal';font-variant-ligatures:normal;font-variant-caps:normal;font-variant-numeric:normal;font-variant-east-asian:normal;stroke-width:0.264583"
         d="m 17.589697,184.21652 q -0.161919,0.0775 -0.308336,0.12058 -0.144694,0.0431 -0.308336,0.0431 -0.208428,0 -0.382406,-0.0603 -0.173977,-0.062 -0.298001,-0.18604 -0.125746,-0.12402 -0.194648,-0.3135 -0.0689,-0.18948 -0.0689,-0.4427 0,-0.47198 0.258383,-0.74069 0.260104,-0.26872 0.685574,-0.26872 0.165365,0 0.323839,0.0465 0.160197,0.0465 0.292833,0.11369 v 0.36001 h -0.01722 q -0.148139,-0.11541 -0.306614,-0.17742 -0.156752,-0.062 -0.306613,-0.062 -0.275608,0 -0.435805,0.18603 -0.158475,0.18431 -0.158475,0.5426 0,0.34796 0.15503,0.53572 0.156752,0.18603 0.43925,0.18603 0.09819,0 0.199815,-0.0258 0.101631,-0.0258 0.18259,-0.0672 0.07062,-0.0362 0.132637,-0.0758 0.06201,-0.0413 0.09819,-0.0706 h 0.01722 z" />
      <path
         id="path2732"
         style="font-style:normal;font-variant:normal;font-weight:normal;font-stretch:normal;font-size:3.52778px;font-family:Sans;-inkscape-font-specification:'Sans, Normal';font-variant-ligatures:normal;font-variant-caps:normal;font-variant-numeric:normal;font-variant-east-asian:normal;stroke-width:0.264583"
         d="m 19.753218,184.3371 h -0.427192 l -0.771702,-0.84232 -0.210151,0.19981 v 0.64251 h -0.323839 v -2.68028 h 0.323839 v 1.7191 l 0.935344,-0.9629 h 0.408244 l -0.894002,0.88883 z" />
    </g>
    <circle
       style="display:inline;opacity:1;vector-effect:none;fill:#808000;fill-opacity:1;fill-rule:evenodd;stroke:none;stroke-width:1;stroke-linecap:butt;stroke-linejoin:miter;stroke-miterlimit:4;stroke-dasharray:none;stroke-dashoffset:0;stroke-opacity:1;paint-order:normal"
       id="path4954-2-3-5"
       cx="10.16"
       cy="214.88698"
       r="4"
       inkscape:label="time" />
    <circle
       r="2"
       style="display:inline;opacity:1;vector-effect:none;fill:#808000;fill-opacity:1;fill-rule:evenodd;stroke:none;stroke-width:0.499999;stroke-linecap:butt;stroke-linejoin:miter;stroke-miterlimit:4;stroke-dasharray:none;stroke-dashoffset:0;stroke-opacity:1;paint-order:normal"
       id="path4954-2-39-9"
       cx="10.16"
       cy="225.47032"
       inkscape:label="noise" />
    <text
       id="text2779"
       y="222.24817"
       x="4.5735116"
       style="font-style:normal;font-variant:normal;font-weight:normal;font-stretch:normal;font-size:3.52778px;line-height:1.25;font-family:Sans;-inkscape-font-specification:'Sans, Normal';font-variant-ligatures:normal;font-variant-caps:normal;font-variant-numeric:normal;font-variant-east-asian:normal;stroke-width:0.264583"
       xml:space="preserve"><tspan
         style="font-style:normal;font-variant:normal;font-weight:normal;font-stretch:normal;font-size:3.52778px;font-family:Sans;-inkscape-font-specification:'Sans, Normal';font-variant-ligatures:normal;font-variant-caps:normal;font-variant-numeric:normal;font-variant-east-asian:normal;stroke-width:0.264583"
         y="222.24817"
         x="4.5735116"
         id="tspan2777"
         sodipodi:role="line">Spring</tspan></text>
    <text
       id="text2783"
       y="198.05769"
       x="4.8758931"
       style="font-size:3.52777px;line-height:1.25;font-family:Sans;-inkscape-font-specification:'Sans, Normal';stroke-width:0.264583"
       xml:space="preserve"><tspan
         style="stroke-width:0.264583"
         y="198.05769"
         x="4.8758931"
         id="tspan2781"
         sodipodi:role="line">Noise</tspan></text>
    <text
       id="text2787"
       y="247.95059"
       x="5.2538691"
       style="font-size:3.52777px;line-height:1.25;font-family:Sans;-inkscape-font-specification:'Sans, Normal';stroke-width:0.264583"
       xml:space="preserve"><tspan
         style="stroke-width:0.264583"
         y="247.95059"
         x="5.2538691"
         id="tspan2785"
         sodipodi:role="line">Mean</tspan></text>
  </g>
</svg>
